<?xml version="1.0" encoding="UTF-8" standalone="no"?>
<!-- Created with Inkscape (http://www.inkscape.org/) -->

<svg
   xmlns:dc="http://purl.org/dc/elements/1.1/"
   xmlns:cc="http://creativecommons.org/ns#"
   xmlns:rdf="http://www.w3.org/1999/02/22-rdf-syntax-ns#"
   xmlns:svg="http://www.w3.org/2000/svg"
   xmlns="http://www.w3.org/2000/svg"
   xmlns:sodipodi="http://sodipodi.sourceforge.net/DTD/sodipodi-0.dtd"
   xmlns:inkscape="http://www.inkscape.org/namespaces/inkscape"
   width="34.410301mm"
   height="47.84037mm"
   viewBox="0 0 34.410301 47.84037"
   version="1.1"
   id="svg1180"
   inkscape:version="0.92.5 (2060ec1f9f, 2020-04-08)"
   sodipodi:docname="crane.svg">
  <defs
     id="defs1174">
    <marker
       inkscape:stockid="Arrow1Lstart"
       orient="auto"
       refY="0.0"
       refX="0.0"
       id="Arrow1Lstart"
       style="overflow:visible"
       inkscape:isstock="true">
      <path
         id="path2557"
         d="M 0.0,0.0 L 5.0,-5.0 L -12.5,0.0 L 5.0,5.0 L 0.0,0.0 z "
         style="fill-rule:evenodd;stroke:#000000;stroke-width:1.0pt"
         transform="scale(0.8) translate(12.5,0)" />
    </marker>
  </defs>
  <sodipodi:namedview
     id="base"
     pagecolor="#ffffff"
     bordercolor="#666666"
     borderopacity="1.0"
     inkscape:pageopacity="0.0"
     inkscape:pageshadow="2"
     inkscape:zoom="1.979899"
     inkscape:cx="9.5551674"
     inkscape:cy="47.866104"
     inkscape:document-units="mm"
     inkscape:current-layer="layer4"
     showgrid="false"
     inkscape:window-width="1920"
     inkscape:window-height="983"
     inkscape:window-x="0"
     inkscape:window-y="0"
     inkscape:window-maximized="1" />
  <metadata
     id="metadata1177">
    <rdf:RDF>
      <cc:Work
         rdf:about="">
        <dc:format>image/svg+xml</dc:format>
        <dc:type
           rdf:resource="http://purl.org/dc/dcmitype/StillImage" />
        <dc:title></dc:title>
      </cc:Work>
    </rdf:RDF>
  </metadata>
  <g
     inkscape:groupmode="layer"
     id="layer4"
     inkscape:label="Layer 2"
     transform="translate(-60.928716,-18.763279)">
    <g
       id="g8248"
       transform="matrix(0.26887687,0,0,0.26887687,60.74346,18.568566)"
       style="display:inline;opacity:1;fill:none;stroke:none;stroke-width:0.37191745;stroke-miterlimit:4;stroke-dasharray:none;paint-order:stroke fill markers"
       inkscape:export-xdpi="150"
       inkscape:export-ydpi="150">
      <path
         id="path8238"
         transform="matrix(2.64858,0,0,2.64858,1.61862,1.65351)"
         d="m 46.0967,57.7359 c 0.02,-0.98 0.04,-1.95 0.06,-2.93 -0.02,-0.12 -0.04,-0.23 -0.06,-0.34 -0.06,-0.32 -0.09,-0.63 0,-0.95 v -1.83 c -0.06,-0.27 -0.07,-0.55 0,-0.83 0,-0.03 0.02,-0.06 0.03,-0.09 -0.01,-2.61 -0.05,-5.23 -0.01,-7.84 0.01,-0.65 -0.19,-0.94 -0.79,-1.19 -2.87,-1.21 -5.72,-2.48 -8.57,-3.74 -0.32,-0.14 -0.74,-0.16 -0.89,-0.59 0.09,-0.07 0.16,-0.17 0.24,-0.18 1.88,-0.38 2.74,-2.1 2.55,-3.52 -0.2,-1.48 -1.25,-2.37 -3.22,-2.67 -0.62,-0.09 -0.88,-0.41 -0.89,-1.02 -0.01,-0.85 -0.06,-1.7 -0.08,-2.54 0,-0.16 0.02,-0.45 0.07,-0.46 1.27,-0.21 0.9,-1.33 1.09,-2.07 0.18,-0.7 0.45,-1.15 1.12,-1.5 1.46,-0.78 2.12,-2.12 2.25,-3.76 0.06,-0.81 -0.17,-1.21 -1.06,-1.05 -0.47,0.08 -0.95,0.05 -1.42,0.06 -1.55,0.05 -2.07,-0.74 -1.45,-2.18 0.12,-0.27 0.27,-0.67 0.17,-0.87 -0.6,-1.14 -0.06,-2.31 -0.18,-3.37 -0.13,-1.18 -0.28,-2.23 -0.02,-3.41003 0.12,-0.52 0.15,-0.85 0.62,-1.16 1.4,-0.93 1.99,-2.75 1.53,-4.42 -0.5,-1.81 -2.16,-3.180005 -3.98,-3.28000495 -1.73,-0.08999995 -3.2,0.85999995 -3.88,2.56000495 -0.12,0.29 -0.23,0.51 -0.5,0.71 -5.73,4.12 -11.45,8.25003 -17.16,12.40003 -0.72,0.53 -1.45,0.87 -2.36997,1.01 -5.62,0.84 -8.23,7.14 -4.89,11.75 0.33,0.44 0.45,0.87 0.45,1.4 -0.01,7.57 -0.02,15.14 0.01,22.72 0,0.73 -0.14,1.1 -0.93,0.95 -0.8,-0.15 -0.95,0.23 -0.93,0.96 0.05,2.24 -0.01,4.49 0.03,6.72 0.02,0.69 -0.21,0.92 -0.85,0.81 -0.72,-0.12 -1.09,0.16 -1.260003,0.89 -0.19,0.86 -0.46,1.71 -0.77,2.53 -0.3,0.8 -0.2299993,1.07 0.75,1.06 6.350003,-0.05 12.699973,-0.02 19.049973,-0.02 h 0.9 c -0.38,-1.27 -0.79,-2.42 -1.07,-3.6 -0.17,-0.69 -0.48,-0.99 -1.18,-0.86 -0.66,0.12 -0.73,-0.17 -0.71,-0.79 0.08,-1.96 0.05,-3.93 0.07,-5.89 0.03,-1.76 0.04,-1.78 -1.7,-1.8 -0.56,0 -0.83,-0.08 -0.83,-0.77 0.03,-7.54 0.02,-15.08 0.01,-22.62 0,-0.42 0.08,-0.77 0.38,-1.11 2.14,-2.48 2.55,-5.24 1.21,-8.23 -0.22,-0.5 -0.12,-0.7 0.27,-0.97 1.36,-0.96 2.7,-1.94 4.05,-2.91 3.3,-2.39 6.59,-4.78 9.89,-7.16003 0.18,-0.13 0.43,-0.52 0.64,-0.2 0.3,0.46003 0.86,0.90003 0.33,1.61003 -0.52,0.69 -0.47,1.48 0.05,2.18 0.35,0.47 0.28,0.85 -0.02,1.29 -0.41,0.58 -0.38,1.21 -0.08,1.83 0.72,1.48 0.23,2.31 -1.42,2.36 -0.61,0.02 -1.22,0.08 -1.83,0.06 -0.47,-0.01 -0.58,0.16 -0.52,0.61 0.18,1.34 0.7,2.6 1.83,3.28 1.18,0.71 1.48,1.74 1.72,2.9 0.06,0.3 0.15,0.59 0.23,0.89 0.06,0.21 0.14,0.41 0.4,0.37 0.75,-0.14 0.71,0.36 0.71,0.85 0,0.58 0.03,1.15 0.04,1.73 0.04,2.02 0.43,2.46 2.43,2.74 0.77,0.11 1.34,0.53 1.6,1.25 0.25,0.68 0.12,1.35 -0.36,1.91 -0.89,1.04 -3.73,1.01 -4.53,-0.09 -0.33,-0.46 -0.77,-0.33 -1.07,-0.2 -0.33,0.15 -0.08,0.54 0.02,0.8 0.37,0.95 1.21,1.28 2.13,1.48 -0.15,0.46 -0.54,0.47 -0.83,0.59 -2.79,1.23 -5.57,2.48 -8.39,3.64 -0.83,0.34 -1.06,0.77 -1.05,1.64 0.03,4.82 0,9.64 -0.01,14.46 0.42,0.21 -0.02,0.65 0.25,0.9 0.28,-0.06 0.56,-0.14 0.85,-0.02 0.21,0 0.42,0 0.63,0 h 5.28 c 0.48,-0.07 0.97,-0.14 1.45,0.01 0.47,0 0.94,-0.01 1.41,-0.01 0.28,0 0.56,-0.01 0.83,-0.02 1.23,0.01 2.45,0.02 3.68,0.03 0.34,-0.6 0.68,0.16 1.01,0 0.68,-0.09 1.37,-0.08 2.05,-0.01 0.18,-0.01 0.36,-0.02 0.54,-0.02 0.42,0 0.84,0 1.27,0.01 0.97,-0.03 1.93,-0.13 2.9,0 0.13,0.02 0.26,0.04 0.38,0.06 0.22,-0.13 0.28,-0.31 0.29,-0.51 0.01,-0.12 0,-0.24 0,-0.35 v -0.06 z m -33.51,-26.65 c 0.38,-0.13 0.3,0.26 0.31,0.47 0.01,1.27 0,2.55 0,4.1 -1.37,-1.51 -2.57,-2.82 -3.88997,-4.28 1.29997,0.01 2.46997,0.09 3.57997,-0.29 z m -5.05997,0.93 c 1.48,1.62 2.86997,3.17 4.28997,4.7 0.36,0.39 0.07,0.59 -0.15,0.83 -1.34,1.48 -2.68997,2.95 -4.13997,4.54 z m 5.31997,6.51 v 10.23 c -1.53,-1.68 -2.90997,-3.2 -4.29997,-4.73 -0.18,-0.2 -0.4,-0.37 -0.12,-0.68 1.44,-1.55 2.85997,-3.12 4.41997,-4.82 z m -0.02,14.73 c -0.01,0.3 -0.38,0.2 -0.6,0.2 -1.35,0.02 -2.70997,-0.01 -4.05997,0.03 -0.57,0.02 -0.74,-0.16 -0.73,-0.72 0.03,-2.47 0.01,-4.94 0.01,-7.69 1.84,2.03 3.54997,3.84 5.16997,5.73 0.59,0.69 0.23,1.63 0.21,2.45 z m 2.59,-35.21 c -0.15,0.4 -0.34,0.19 -0.53,0.05 -0.62,-0.47 -1.29,-0.85 -2.23,-1.18 1.57,-1.08 2.88,-2.19 4.38,-3.05 0,-0.01 0,-0.02 0.01,-0.03 0.01,0 0.02,-0.01 0.03,-0.02 0.01,-0.02 0.02,-0.03 0.03,-0.05 0,-0.01 0.03,0 0.06,0.01 -0.03,0.01 -0.06,0.03 -0.09,0.04 -0.01,0.01 -0.01,0.03 -0.02,0.04 -0.01,0 -0.01,0.01 -0.02,0.01 -0.29,1.49 -1.11,2.78 -1.62,4.18 z m 8.59,-5.24 c 0,0.01 0,0.03 0,0.04 -0.01,0 -0.02,0 -0.03,0 -0.87,0.95 -2.01,1.54 -3.01,2.31 -1.38,1.04 -2.8,2.03 -4.47,3.23 0.77,-1.83 1.42,-3.4 2.07,-4.96 0.09,-0.21 0.27,-0.28 0.5,-0.29 1.64,-0.06 3.26,-0.42 4.91,-0.29 0,0 0.01,-0.01 0.01,-0.01 0.01,-0.02 0.01,-0.03 0.02,-0.03 0,-0.03 0,-0.06 0.01,-0.09 0.03,0.01 0.06,0.02 0.08,0.02 -0.03,0.02 -0.06,0.04 -0.09,0.07 z m 0.79,-1.23 c -1.58,0.12 -3.15,0.27 -4.73,0.39 -0.08,0.01 -0.16,-0.1 -0.3,-0.2 2.47,-1.78003 4.91,-3.54003 7.34,-5.30003 0.04,0.05 0.08,0.09 0.12,0.14 -0.61,1.46 -1.22,2.92 -1.84,4.38003 -0.12,0.27 -0.18,0.56 -0.59,0.59 z m 2.03,-0.68 c -0.05,-0.04 -0.11,-0.09 -0.16,-0.13 0.8,-1.90003 1.61,-3.80003 2.48,-5.86003 0.42,1.23 1,2.12 2.04,2.84 -1.5,1.08 -2.93,2.11 -4.36,3.15003 z m 3.86,-6.90003 c 0.02,-1.34 1.06,-2.39 2.38,-2.39 1.45,0 2.72,1.3 2.67,2.76 -0.04,1.35 -1.08,2.38 -2.4,2.37 -1.49,0 -2.67,-1.23 -2.65,-2.74 z m 2.45,4.49 c 0.15,-0.2 0.44,-0.18 0.62,0.03 0.38,0.47 0.09,0.8 -0.28,1.17 -0.28,-0.39 -0.76,-0.67 -0.34,-1.2 z m 0.34,2.97003 c 0.45,0.4 0.74,0.81 0.3,1.39 -0.14,0.18 -0.26,0.18 -0.39,0.03 -0.42,-0.5 -0.42,-0.97 0.09,-1.42 z m 0.18,4.94 c -0.44,-0.4 -0.71,-0.82 -0.28,-1.39 0.13,-0.18 0.24,-0.18 0.39,0 0.43,0.5 0.43,0.97 -0.11,1.39 z m 4.23,23.47 c 1.6,0.69 3.2,1.39 4.8,2.08 -0.02,0.08 -0.05,0.16 -0.07,0.24 -2.27,0 -4.53,-0.03 -6.8,0.03 -0.3,0 -0.33,-0.07 -0.38,-0.25 -0.03,-0.09 -0.02,-0.2 -0.03,-0.3 -0.22,-2.67 0.04,-2.86 2.48,-1.8 z m -4.85,-0.68 c 0.64,-0.28 0.67,0.31 0.94,0.55 0.05,0.05 0,0.2 0.01,0.3 0.14,2.07 0.14,2.07 -1.92,2.07 h -5.25 c -0.02,-0.06 -0.04,-0.13 -0.06,-0.2 2.1,-0.89 4.19,-1.78 6.28,-2.72 z m 11.72,17.26 c 0,0.62 -0.21,0.74 -0.75,0.73 -1.57,-0.03 -3.14,-0.01 -4.71,-0.01 -4.61,0 -9.23,-0.02 -13.84,0.03 -0.68,0 -0.82,-0.25 -0.81,-0.81 0.02,-4.03 0.06,-8.07 0.04,-12.1 0,-0.68 0.19,-0.86 0.86,-0.85 3.09,0.03 6.18,0.02 9.26,0.02 3.02,0 6.04,0.02 9.06,-0.02 0.71,-0.01 0.91,0.18 0.91,0.9 -0.06,4.04 -0.05,8.07 -0.02,12.11 z"
         inkscape:connector-curvature="0"
         style="fill:#ffffff;stroke:none;stroke-width:0.14042145;stroke-miterlimit:4;stroke-dasharray:none;paint-order:stroke fill markers" />
      <path
         id="path8240"
         transform="matrix(2.64858,0,0,2.64858,65.123,35.3325)"
         d="M 0.03,0.12 C 0.03,0.08 0.04,0.04 0.04,0 0.07,0.01 0.09,0.01 0.12,0.02 0.08,0.05 0.04,0.08 0,0.11 c 0.01,0 0.03,0.01 0.03,0.01 z"
         inkscape:connector-curvature="0"
         style="fill:#eff7f7;stroke:none;stroke-width:0.14042145;stroke-miterlimit:4;stroke-dasharray:none;paint-order:stroke fill markers" />
      <path
         id="path8242"
         transform="matrix(2.64858,0,0,2.64858,70.5783,120.35)"
         d="m 8.62027,0.0206402 c 2.62003,0 5.23003,0.02 7.85003,-0.019999994 0.66,-0.009999996 0.86,0.159999794 0.85,0.829999794 -0.04,3.06 -0.04,6.11 0,9.16996 0.01,0.74 -0.16,0.99 -0.95,0.98 -5.19,-0.03 -10.39003,-0.02 -15.580033,0.01 -0.65,0 -0.78999954,-0.2 -0.78999954,-0.81 0.03000004,-3.11996 0.04000004,-6.24996 0,-9.36996 C -0.00973254,0.0906402 0.260267,-0.00935979 0.880267,6.40206e-4 3.46027,0.0406402 6.04027,0.0206402 8.62027,0.0206402 Z"
         inkscape:connector-curvature="0"
         style="fill:#ffffff;stroke:none;stroke-width:0.14042145;stroke-miterlimit:4;stroke-dasharray:none;paint-order:stroke fill markers" />
      <rect
         id="rect8244"
         transform="matrix(2.64858,0,0,2.64858,63.2954,154.466)"
         width="18.247999pt"
         height="0.75199997pt"
         x="0"
         y="0"
         style="fill:#ffffff;stroke:none;stroke-width:0.14042145;stroke-miterlimit:4;stroke-dasharray:none;paint-order:stroke fill markers" />
      <path
         id="path8246"
         transform="matrix(2.64858,0,0,2.64858,121.935,112.592)"
         d="M 0.77,0.77 V 16.75 H 0 V 0 0 c 0.42,0 0.77,0.34 0.77,0.77 z"
         inkscape:connector-curvature="0"
         style="fill:#ffffff;stroke:none;stroke-width:0.14042145;stroke-miterlimit:4;stroke-dasharray:none;paint-order:stroke fill markers" />
    </g>
  </g>
</svg>
