<?xml version="1.0" encoding="UTF-8" standalone="no"?>
<!-- Created with Inkscape (http://www.inkscape.org/) -->

<svg
   xmlns:dc="http://purl.org/dc/elements/1.1/"
   xmlns:cc="http://creativecommons.org/ns#"
   xmlns:rdf="http://www.w3.org/1999/02/22-rdf-syntax-ns#"
   xmlns:svg="http://www.w3.org/2000/svg"
   xmlns="http://www.w3.org/2000/svg"
   xmlns:sodipodi="http://sodipodi.sourceforge.net/DTD/sodipodi-0.dtd"
   xmlns:inkscape="http://www.inkscape.org/namespaces/inkscape"
   width="4508.1353"
   height="695.43658"
   viewBox="-2 3.3 1192.7773 184.00092"
   version="1.1"
   id="svg1988"
   inkscape:version="0.92.5 (2060ec1f9f, 2020-04-08)"
   sodipodi:docname="repack-social.svg">
  <defs
     id="defs1982" />
  <sodipodi:namedview
     id="base"
     pagecolor="#ffffff"
     bordercolor="#66fe66"
     borderopacity="1"
     inkscape:pageopacity="0.0"
     inkscape:pageshadow="2"
     inkscape:zoom="0.061871843"
     inkscape:cx="7578.895"
     inkscape:cy="1132.88"
     inkscape:document-units="mm"
     inkscape:current-layer="layer1"
     showgrid="false"
     inkscape:window-width="1920"
     inkscape:window-height="990"
     inkscape:window-x="0"
     inkscape:window-y="0"
     inkscape:window-maximized="1"
     units="px"
     inkscape:pagecheckerboard="true"
     borderlayer="false"
     scale-x="1"
     viewbox-width="500.47"
     viewbox-x="-2"
     viewbox-y="3.3" />
  <metadata
     id="metadata1985">
    <rdf:RDF>
      <cc:Work
         rdf:about="">
        <dc:format>image/svg+xml</dc:format>
        <dc:type
           rdf:resource="http://purl.org/dc/dcmitype/StillImage" />
        <dc:title></dc:title>
      </cc:Work>
    </rdf:RDF>
  </metadata>
  <g
     inkscape:label="Layer 1"
     inkscape:groupmode="layer"
     id="layer1"
     transform="translate(456.56008,72.588428)">
    <g
       id="g2751"
       transform="matrix(4.41,0,0,4.41,307.83604,-154.9647)">
      <g
         transform="matrix(0.35277777,0,0,-0.35277777,18.396417,24.031621)"
         id="g490"
         style="opacity:1">
        <path
           inkscape:connector-curvature="0"
           id="path492"
           style="fill:#231f20;fill-opacity:1;fill-rule:nonzero;stroke:none"
           d="m 0,0 c -0.537,0 -0.97,-0.434 -0.97,-0.97 0,-0.535 0.433,-0.969 0.97,-0.969 0.535,0 0.969,0.434 0.969,0.969 C 0.969,-0.434 0.535,0 0,0" />
      </g>
      <g
         transform="matrix(0.35277777,0,0,-0.35277777,24.781547,29.694656)"
         id="g494"
         style="opacity:1">
        <path
           inkscape:connector-curvature="0"
           id="path496"
           style="fill:#231f20;fill-opacity:1;fill-rule:nonzero;stroke:none"
           d="m 0,0 c 0,-1.072 -0.867,-1.939 -1.938,-1.939 -1.073,0 -1.941,0.867 -1.941,1.939 v 8.296 c 0,1.071 0.868,1.939 1.941,1.939 C -0.867,10.235 0,9.367 0,8.296 Z m -23.271,11.528 c 0,2.771 1.855,5.192 4.598,6.468 l -0.362,0.547 -0.361,0.539 -0.805,1.209 c -0.099,0.149 -0.059,0.35 0.09,0.448 0.148,0.099 0.348,0.059 0.449,-0.09 l 0.864,-1.296 0.363,-0.545 0.368,-0.553 c 1.168,0.453 2.47,0.707 3.844,0.707 1.375,0 2.679,-0.254 3.846,-0.707 l 0.369,0.553 0.364,0.545 0.865,1.296 c 0.097,0.15 0.298,0.191 0.448,0.09 0.147,-0.098 0.188,-0.299 0.088,-0.448 l -0.805,-1.209 -0.359,-0.539 -0.364,-0.547 c 2.743,-1.276 4.599,-3.697 4.599,-6.468 z M -5.172,8.622 V 7.307 -3.987 c 0,-1.129 -0.917,-2.048 -2.047,-2.048 h -1.476 c 0.048,-0.171 0.076,-0.352 0.076,-0.537 v -0.109 -0.646 -3.34 c 0,-1.071 -0.868,-1.94 -1.941,-1.94 -1.069,0 -1.939,0.869 -1.939,1.94 v 3.34 0.646 0.109 c 0,0.185 0.028,0.366 0.078,0.537 h -3.601 c 0.048,-0.171 0.077,-0.352 0.077,-0.537 v -0.109 -0.646 -3.34 c 0,-1.071 -0.869,-1.94 -1.94,-1.94 -1.071,0 -1.94,0.869 -1.94,1.94 v 3.34 0.646 0.109 c 0,0.185 0.028,0.366 0.078,0.537 h -1.479 c -1.128,0 -2.045,0.919 -2.045,2.048 v 11.294 1.315 1.613 h 0.139 17.821 0.139 z M -24.564,0 c 0,-1.072 -0.87,-1.939 -1.941,-1.939 -1.071,0 -1.938,0.867 -1.938,1.939 v 8.296 c 0,1.071 0.867,1.939 1.938,1.939 1.071,0 1.941,-0.868 1.941,-1.939 z m 10.333,28.684 c -13.6,0 -24.625,-11.024 -24.625,-24.623 0,-13.6 11.025,-24.625 24.625,-24.625 13.598,0 24.624,11.025 24.624,24.625 0,13.599 -11.026,24.623 -24.624,24.623" />
      </g>
      <g
         transform="matrix(0.35277777,0,0,-0.35277777,21.132877,24.031621)"
         id="g498"
         style="opacity:1">
        <path
           inkscape:connector-curvature="0"
           id="path500"
           style="fill:#231f20;fill-opacity:1;fill-rule:nonzero;stroke:none"
           d="m 0,0 c -0.536,0 -0.97,-0.434 -0.97,-0.97 0,-0.535 0.434,-0.969 0.97,-0.969 0.535,0 0.97,0.434 0.97,0.969 C 0.97,-0.434 0.535,0 0,0" />
      </g>
    </g>
    <g
       id="g2695"
       transform="matrix(4.41,0,0,4.41,-517.57444,-154.04878)">
      <g
         transform="matrix(0.35277777,0,0,-0.35277777,123.60429,22.664598)"
         id="g566"
         style="opacity:1">
        <path
           inkscape:connector-curvature="0"
           id="path568"
           style="fill:#231f20;fill-opacity:1;fill-rule:nonzero;stroke:none"
           d="m 0,0 c -1.811,-0.805 -3.76,-1.348 -5.805,-1.591 2.087,1.25 3.689,3.23 4.444,5.592 -1.953,-1.159 -4.115,-2 -6.418,-2.454 -1.843,1.964 -4.47,3.192 -7.377,3.192 -5.581,0 -10.107,-4.525 -10.107,-10.107 0,-0.792 0.09,-1.563 0.262,-2.303 -8.4,0.421 -15.848,4.444 -20.832,10.56 -0.87,-1.492 -1.369,-3.228 -1.369,-5.081 0,-3.507 1.785,-6.6 4.496,-8.413 -1.656,0.053 -3.215,0.507 -4.577,1.265 -10e-4,-0.042 -10e-4,-0.085 -10e-4,-0.128 0,-4.896 3.484,-8.981 8.108,-9.91 -0.848,-0.231 -1.741,-0.355 -2.663,-0.355 -0.652,0 -1.285,0.063 -1.902,0.182 1.287,-4.015 5.019,-6.938 9.441,-7.019 -3.459,-2.711 -7.817,-4.327 -12.553,-4.327 -0.815,0 -1.619,0.048 -2.41,0.141 4.473,-2.868 9.785,-4.541 15.493,-4.541 18.591,0 28.756,15.401 28.756,28.757 0,0.438 -0.009,0.875 -0.028,1.308 C -3.068,-3.807 -1.354,-2.027 0,0" />
      </g>
    </g>
    <g
       id="g2691"
       transform="matrix(4.41,0,0,4.41,-919.15053,-240.50196)">
      <g
         transform="matrix(0.35277777,0,0,-0.35277777,117.50564,45.907397)"
         id="g570"
         style="opacity:1">
        <path
           inkscape:connector-curvature="0"
           id="path572"
           style="fill:#231f20;fill-opacity:1;fill-rule:nonzero;stroke:none"
           d="m 0,0 c 0.012,-0.267 0.017,-0.534 0.017,-0.803 0,-8.201 -6.242,-17.657 -17.656,-17.657 -3.504,0 -6.767,1.028 -9.513,2.788 0.485,-0.057 0.979,-0.086 1.48,-0.086 2.908,0 5.584,0.992 7.707,2.656 -2.715,0.051 -5.007,1.845 -5.796,4.31 0.378,-0.073 0.766,-0.111 1.167,-0.111 0.567,0 1.115,0.075 1.636,0.217 -2.84,0.571 -4.979,3.08 -4.979,6.084 0,0.028 0,0.053 0.001,0.08 0.836,-0.465 1.793,-0.745 2.81,-0.778 -1.665,1.115 -2.761,3.013 -2.761,5.166 0,1.138 0.306,2.204 0.841,3.12 3.06,-3.755 7.633,-6.224 12.791,-6.483 -0.106,0.454 -0.16,0.928 -0.16,1.414 0,3.427 2.778,6.205 6.205,6.205 1.785,0 3.398,-0.754 4.529,-1.959 C -0.266,4.44 1.061,4.958 2.261,5.669 1.797,4.219 0.813,3.003 -0.469,2.235 0.788,2.386 1.983,2.72 3.096,3.213 2.265,1.969 1.212,0.875 0,0 m -12.405,19.66 c -13.6,0 -24.625,-11.027 -24.625,-24.625 0,-13.599 11.025,-24.623 24.625,-24.623 13.599,0 24.623,11.024 24.623,24.623 0,13.598 -11.024,24.625 -24.623,24.625" />
      </g>
    </g>
    <g
       id="g2761"
       transform="matrix(4.41,0,0,4.41,-2.3792366,-250.96097)">
      <g
         transform="matrix(0.35277777,0,0,-0.35277777,22.751547,44.729657)"
         id="g602"
         style="opacity:1">
        <path
           inkscape:connector-curvature="0"
           id="path604"
           style="fill:#231f20;fill-opacity:1;fill-rule:nonzero;stroke:none"
           d="m 0,0 c -0.803,0 -1.453,0.651 -1.453,1.454 0,0.803 0.65,1.453 1.453,1.453 0.804,0 1.454,-0.65 1.454,-1.453 C 1.454,0.651 0.804,0 0,0 m -11.632,0 c -0.803,0 -1.454,0.651 -1.454,1.454 0,0.803 0.651,1.453 1.454,1.453 0.803,0 1.454,-0.65 1.454,-1.453 C -10.178,0.651 -10.829,0 -11.632,0 M 0.857,5.823 1.403,6.643 1.941,7.45 3.15,9.264 C 3.299,9.486 3.238,9.787 3.017,9.936 2.793,10.085 2.492,10.025 2.344,9.801 L 1.048,7.857 0.503,7.039 -0.05,6.211 c -1.751,0.679 -3.705,1.06 -5.766,1.06 -2.061,0 -4.015,-0.381 -5.766,-1.06 l -0.552,0.828 -0.544,0.818 -1.298,1.944 c -0.148,0.223 -0.449,0.283 -0.672,0.135 -0.222,-0.149 -0.283,-0.45 -0.134,-0.672 l 1.208,-1.814 0.539,-0.807 0.546,-0.82 c -4.114,-1.916 -6.898,-5.546 -6.898,-9.701 H 7.755 c 0,4.155 -2.783,7.785 -6.898,9.701" />
      </g>
      <g
         transform="matrix(0.35277777,0,0,-0.35277777,15.986087,46.781553)"
         id="g606"
         style="opacity:1">
        <path
           inkscape:connector-curvature="0"
           id="path608"
           style="fill:#231f20;fill-opacity:1;fill-rule:nonzero;stroke:none"
           d="m 0,0 h -0.209 v -2.419 -1.972 -16.935 c 0,-1.694 1.376,-3.071 3.069,-3.071 H 5.076 C 5.002,-24.653 4.96,-24.924 4.96,-25.204 v -0.161 -0.97 -5.009 c 0,-1.605 1.303,-2.908 2.908,-2.908 1.607,0 2.909,1.303 2.909,2.908 v 5.009 0.97 0.161 c 0,0.28 -0.043,0.551 -0.116,0.807 h 5.401 c -0.074,-0.256 -0.116,-0.527 -0.116,-0.807 v -0.161 -0.97 -5.009 c 0,-1.605 1.303,-2.908 2.908,-2.908 1.607,0 2.91,1.303 2.91,2.908 v 5.009 0.97 0.161 c 0,0.28 -0.042,0.551 -0.117,0.807 h 2.216 c 1.694,0 3.07,1.377 3.07,3.071 V -4.391 -2.419 0 h -0.209 z" />
      </g>
      <g
         transform="matrix(0.35277777,0,0,-0.35277777,14.202187,46.781553)"
         id="g610"
         style="opacity:1">
        <path
           inkscape:connector-curvature="0"
           id="path612"
           style="fill:#231f20;fill-opacity:1;fill-rule:nonzero;stroke:none"
           d="m 0,0 c -1.606,0 -2.908,-1.302 -2.908,-2.908 v -12.441 c 0,-1.605 1.302,-2.908 2.908,-2.908 1.606,0 2.908,1.303 2.908,2.908 V -2.908 C 2.908,-1.302 1.606,0 0,0" />
      </g>
      <g
         transform="matrix(0.35277777,0,0,-0.35277777,27.197427,46.781553)"
         id="g614"
         style="opacity:1">
        <path
           inkscape:connector-curvature="0"
           id="path616"
           style="fill:#231f20;fill-opacity:1;fill-rule:nonzero;stroke:none"
           d="m 0,0 c -1.606,0 -2.908,-1.302 -2.908,-2.908 v -12.441 c 0,-1.605 1.302,-2.908 2.908,-2.908 1.607,0 2.907,1.303 2.907,2.908 V -2.908 C 2.907,-1.302 1.607,0 0,0" />
      </g>
    </g>
    <g
       id="g2767"
       transform="matrix(4.41,0,0,4.41,292.96134,-246.38601)">
      <g
         transform="matrix(0.35277777,0,0,-0.35277777,51.468227,51.013193)"
         id="g632"
         style="opacity:1">
        <path
           inkscape:connector-curvature="0"
           id="path634"
           style="fill:#231f20;fill-opacity:1;fill-rule:nonzero;stroke:none"
           d="M 0,0 -0.357,1.706 H -4.148 L -4.765,0 h -3.102 l 4.434,10.585 c 0.213,0.508 0.691,0.839 1.258,0.839 H 0.348 L 2.734,0 Z m -12.858,-0.179 c -1.322,0.014 -2.596,0.29 -3.286,0.607 l 0.536,2.503 c 0.686,-0.32 1.549,-0.745 3.034,-0.722 0.85,0.014 1.76,0.352 1.769,1.119 0.005,0.5 -0.383,0.859 -1.533,1.419 -1.12,0.547 -2.607,1.464 -2.587,3.109 0.016,2.223 2.072,3.776 4.993,3.776 1.139,0 2.053,-0.248 2.765,-0.507 l -0.52,-2.422 c -1.322,0.61 -2.49,0.567 -2.913,0.511 -0.854,-0.111 -1.244,-0.547 -1.253,-0.956 -0.029,-1.347 4.152,-1.514 4.14,-4.528 -0.01,-2.376 -2.041,-3.909 -5.145,-3.909 M -21.129,0 l 2.444,11.424 h 2.955 L -18.174,0 Z m -6.736,0 -2.356,9.116 c -0.143,0.561 -0.267,0.768 -0.702,1.004 -0.71,0.386 -1.883,0.747 -2.916,0.972 l 0.07,0.332 h 5.029 c 0.64,0 1.217,-0.426 1.363,-1.165 l 1.244,-6.611 3.076,7.776 h 3.104 L -24.741,0 Z m 13.134,30.351 c -13.6,0 -24.625,-11.024 -24.625,-24.623 0,-13.6 11.025,-24.625 24.625,-24.625 13.598,0 24.624,11.025 24.624,24.625 0,13.599 -11.026,24.623 -24.624,24.623" />
      </g>
      <g
         transform="matrix(0.35277777,0,0,-0.35277777,50.304967,49.585264)"
         id="g636"
         style="opacity:1">
        <path
           inkscape:connector-curvature="0"
           id="path638"
           style="fill:#231f20;fill-opacity:1;fill-rule:nonzero;stroke:none"
           d="M 0,0 H 2.452 L 1.556,4.289 Z" />
      </g>
    </g>
    <g
       id="g2780"
       transform="matrix(4.41,0,0,4.41,-9.4206836,-249.51482)">
      <g
         id="g2721">
        <g
           style="opacity:1"
           id="g640"
           transform="matrix(0.35277777,0,0,-0.35277777,63.732777,50.342501)">
          <path
             d="m 0,0 c 0,-0.348 0.206,-0.571 0.528,-0.571 0.601,0 1.033,0.571 1.059,1.4 C 1.432,0.847 1.364,0.852 1.258,0.852 0.423,0.852 0,0.566 0,0"
             style="fill:#231f20;fill-opacity:1;fill-rule:nonzero;stroke:none"
             id="path642"
             inkscape:connector-curvature="0" />
        </g>
        <g
           style="opacity:1"
           id="g644"
           transform="matrix(0.35277777,0,0,-0.35277777,68.034377,49.360421)">
          <path
             d="M 0,0 C -0.466,0 -0.8,-0.356 -0.936,-0.999 H 0.682 C 0.69,-0.882 0.837,0 0,0"
             style="fill:#231f20;fill-opacity:1;fill-rule:nonzero;stroke:none"
             id="path646"
             inkscape:connector-curvature="0" />
        </g>
        <g
           style="opacity:1"
           id="g648"
           transform="matrix(0.35277777,0,0,-0.35277777,75.119597,50.929982)">
          <path
             d="M 0,0 0.069,0.521 C -0.335,0.089 -0.75,-0.097 -1.29,-0.097 c -1.07,0 -1.779,0.923 -1.779,2.323 0,1.863 1.099,3.432 2.398,3.432 0.571,0 1.004,-0.233 1.407,-0.763 L 1.063,6.884 H 2.516 L 1.394,0 Z m -4.44,0 h -1.474 l 0.068,0.377 c 0.256,1.734 0.584,3.489 0.768,5.222 h 1.354 C -3.712,5.314 -3.777,5.036 -3.813,4.75 -3.361,5.412 -3.016,5.761 -2.399,5.633 -2.582,5.323 -2.827,4.71 -2.959,4.009 -3.786,4.092 -3.913,3.424 -4.44,0 m -1.965,0 h -1.221 l 0.027,0.58 c -0.372,-0.458 -0.869,-0.677 -1.543,-0.677 -0.8,0 -1.346,0.624 -1.346,1.53 0,1.364 0.951,2.158 2.586,2.158 0.167,0 0.381,-0.016 0.6,-0.044 0.046,0.185 0.058,0.264 0.058,0.364 0,0.371 -0.256,0.509 -0.945,0.509 -0.72,0.008 -1.314,-0.171 -1.559,-0.251 0.015,0.092 0.204,1.259 0.204,1.259 0.734,0.215 1.218,0.296 1.763,0.296 1.265,0 1.936,-0.568 1.935,-1.642 C -5.844,3.794 -5.891,3.439 -5.965,2.973 -6.093,2.163 -6.368,0.423 -6.405,0 m -4.512,0.105 c -0.542,-0.148 -0.893,-0.202 -1.302,-0.202 -1.586,0 -2.574,1.141 -2.574,2.972 0,2.461 1.366,4.181 3.318,4.181 0.644,0 1.404,-0.272 1.62,-0.357 l -0.241,-1.494 c -0.526,0.264 -0.908,0.372 -1.317,0.372 -1.1,0 -1.871,-1.064 -1.871,-2.58 0,-1.045 0.518,-1.677 1.375,-1.677 0.363,0 0.764,0.113 1.251,0.354 z M -16.57,0 h -1.474 l 0.067,0.377 c 0.256,1.734 0.584,3.489 0.769,5.222 h 1.353 c 0.013,-0.285 -0.052,-0.563 -0.088,-0.849 0.451,0.662 0.796,1.011 1.413,0.883 C -14.712,5.323 -14.958,4.71 -15.09,4.009 -15.916,4.092 -16.042,3.424 -16.57,0 m -3.289,1.169 c 0.524,0 0.997,0.109 1.524,0.354 L -18.579,0.13 c -0.503,-0.155 -0.989,-0.228 -1.503,-0.227 -1.64,0.001 -2.495,0.858 -2.495,2.498 0,1.914 1.087,3.323 2.563,3.323 1.209,0 1.98,-0.789 1.98,-2.027 0,-0.41 -0.054,-0.811 -0.181,-1.376 h -2.917 c -0.099,-0.813 0.422,-1.152 1.273,-1.152 m -3.414,0.102 c 0.169,0 0.298,0.017 0.398,0.053 L -23.07,0.085 c -0.404,-0.127 -0.718,-0.182 -1.059,-0.182 -0.753,0 -1.165,0.433 -1.165,1.23 -0.01,0.248 0.109,0.898 0.203,1.492 0.085,0.524 0.639,3.821 0.639,3.821 h 1.464 l -0.171,-0.847 h 0.752 l -0.2,-1.346 h -0.755 c -0.17,-1.065 -0.412,-2.391 -0.415,-2.567 0,-0.289 0.154,-0.415 0.504,-0.415 m -3.253,2.063 c 0.739,-0.339 1.039,-0.79 1.039,-1.56 0,-1.279 -0.718,-1.871 -2.273,-1.871 -0.9,0.026 -1.198,0.093 -1.533,0.166 0.009,0.058 0.202,1.292 0.202,1.292 0.472,-0.152 0.881,-0.22 1.321,-0.22 0.583,0 0.846,0.157 0.846,0.506 0,0.255 -0.092,0.338 -0.689,0.618 -0.779,0.368 -1.122,0.855 -1.122,1.564 -0.005,1.034 0.565,1.895 2.214,1.895 0.336,0 0.915,-0.049 1.297,-0.109 l -0.21,-1.299 c -0.375,0.053 -0.77,0.085 -1.059,0.085 -0.476,0 -0.721,-0.156 -0.721,-0.458 0,-0.262 0.071,-0.325 0.688,-0.609 M -30.84,0 l 0.028,0.58 c -0.372,-0.458 -0.87,-0.677 -1.544,-0.677 -0.799,0 -1.347,0.624 -1.347,1.53 0,1.364 0.953,2.158 2.588,2.158 0.167,0 0.381,-0.016 0.6,-0.044 0.046,0.185 0.058,0.264 0.058,0.364 0,0.371 -0.257,0.509 -0.945,0.509 -0.721,0.008 -1.316,-0.171 -1.56,-0.251 0.015,0.092 0.204,1.259 0.204,1.259 0.735,0.215 1.219,0.296 1.764,0.296 1.265,0 1.935,-0.568 1.934,-1.642 0.003,-0.288 -0.045,-0.643 -0.119,-1.109 -0.128,-0.81 -0.403,-2.55 -0.44,-2.973 z m -4.953,0 0.844,5.292 L -36.833,0 h -1.005 L -37.962,5.261 -38.849,0 h -1.379 l 1.152,6.884 h 2.119 l 0.059,-4.261 1.43,4.261 h 2.288 L -34.32,0 Z m 16.804,28.104 c -13.599,0 -24.625,-11.024 -24.625,-24.623 0,-13.6 11.026,-24.625 24.625,-24.625 13.599,0 24.624,11.025 24.624,24.625 0,13.599 -11.025,24.623 -24.624,24.623"
             style="fill:#231f20;fill-opacity:1;fill-rule:nonzero;stroke:none"
             id="path650"
             inkscape:connector-curvature="0" />
        </g>
        <g
           style="opacity:1"
           id="g652"
           transform="matrix(0.35277777,0,0,-0.35277777,71.922167,50.342501)">
          <path
             d="m 0,0 c 0,-0.348 0.206,-0.571 0.528,-0.571 0.6,0 1.033,0.571 1.058,1.4 C 1.432,0.847 1.364,0.852 1.258,0.852 0.423,0.852 0,0.566 0,0"
             style="fill:#231f20;fill-opacity:1;fill-rule:nonzero;stroke:none"
             id="path654"
             inkscape:connector-curvature="0" />
        </g>
        <g
           style="opacity:1"
           id="g656"
           transform="matrix(0.35277777,0,0,-0.35277777,74.981097,49.420719)">
          <path
             d="m 0,0 c -0.668,0 -1.143,-0.78 -1.143,-1.881 0,-0.733 0.254,-1.103 0.755,-1.103 0.687,0 1.169,0.777 1.169,1.886 C 0.781,-0.386 0.506,0 0,0"
             style="fill:#231f20;fill-opacity:1;fill-rule:nonzero;stroke:none"
             id="path658"
             inkscape:connector-curvature="0" />
        </g>
      </g>
    </g>
    <g
       id="g2743"
       transform="matrix(4.41,0,0,4.41,496.41068,-150.5249)">
      <g
         transform="matrix(0.35277777,0,0,-0.35277777,43.871967,24.582086)"
         id="g1112"
         style="opacity:1">
        <path
           inkscape:connector-curvature="0"
           id="path1114"
           style="fill:#231f20;fill-opacity:1;fill-rule:nonzero;stroke:none"
           d="M 0,0 -3.252,-15.198 H 0.68 L 3.931,0 Z" />
      </g>
      <g
         transform="matrix(0.35277777,0,0,-0.35277777,41.820077,24.582086)"
         id="g1116"
         style="opacity:1">
        <path
           inkscape:connector-curvature="0"
           id="path1118"
           style="fill:#231f20;fill-opacity:1;fill-rule:nonzero;stroke:none"
           d="m 0,0 -4.092,-10.344 -1.655,8.795 C -5.942,-0.566 -6.708,0 -7.561,0 h -6.69 l -0.092,-0.441 c 1.373,-0.299 2.934,-0.78 3.878,-1.294 0.579,-0.313 0.744,-0.588 0.934,-1.335 l 3.135,-12.128 h 4.155 L 4.129,0 Z" />
      </g>
      <g
         transform="matrix(0.35277777,0,0,-0.35277777,51.093717,28.043789)"
         id="g1120"
         style="opacity:1">
        <path
           inkscape:connector-curvature="0"
           id="path1122"
           style="fill:#231f20;fill-opacity:1;fill-rule:nonzero;stroke:none"
           d="M 0,0 2.07,5.706 3.261,0 Z M 4.85,9.813 H 1.493 c -0.755,0 -1.39,-0.44 -1.673,-1.115 L -6.079,-5.385 h 4.127 l 0.821,2.269 h 5.043 l 0.475,-2.269 h 3.637 z" />
      </g>
      <g
         transform="matrix(0.35277777,0,0,-0.35277777,47.078197,26.067642)"
         id="g1124"
         style="opacity:1">
        <path
           inkscape:connector-curvature="0"
           id="path1126"
           style="fill:#231f20;fill-opacity:1;fill-rule:nonzero;stroke:none"
           d="M 0,0 C 0.013,0.544 0.532,1.123 1.668,1.271 2.23,1.346 3.784,1.403 5.543,0.592 L 6.235,3.814 C 5.288,4.158 4.071,4.489 2.556,4.489 c -3.886,0 -6.62,-2.067 -6.642,-5.024 -0.027,-2.188 1.951,-3.409 3.441,-4.136 1.531,-0.745 2.046,-1.223 2.04,-1.889 -0.012,-1.02 -1.222,-1.47 -2.354,-1.487 -1.976,-0.031 -3.124,0.533 -4.036,0.96 l -0.713,-3.33 c 0.918,-0.422 2.613,-0.79 4.372,-0.807 4.13,0 6.831,2.039 6.844,5.199 C 5.525,-2.015 -0.038,-1.793 0,0" />
      </g>
    </g>
    <g
       id="g2733"
       transform="matrix(4.41,0,0,4.41,-416.38191,-152.43095)">
      <g
         transform="matrix(0.35277777,0,0,-0.35277777,63.291197,28.427911)"
         id="g1128"
         style="opacity:1">
        <path
           inkscape:connector-curvature="0"
           id="path1130"
           style="fill:#231f20;fill-opacity:1;fill-rule:nonzero;stroke:none"
           d="m 0,0 c 0,-0.383 0.227,-0.628 0.581,-0.628 0.661,0 1.136,0.629 1.164,1.54 C 1.576,0.931 1.5,0.937 1.384,0.937 0.465,0.937 0,0.622 0,0" />
      </g>
      <g
         transform="matrix(0.35277777,0,0,-0.35277777,72.299487,28.427911)"
         id="g1132"
         style="opacity:1">
        <path
           inkscape:connector-curvature="0"
           id="path1134"
           style="fill:#231f20;fill-opacity:1;fill-rule:nonzero;stroke:none"
           d="m 0,0 c 0,-0.383 0.227,-0.628 0.581,-0.628 0.66,0 1.136,0.629 1.163,1.54 C 1.575,0.931 1.5,0.937 1.383,0.937 0.465,0.937 0,0.622 0,0" />
      </g>
      <g
         transform="matrix(0.35277777,0,0,-0.35277777,68.022917,27.347617)"
         id="g1136"
         style="opacity:1">
        <path
           inkscape:connector-curvature="0"
           id="path1138"
           style="fill:#231f20;fill-opacity:1;fill-rule:nonzero;stroke:none"
           d="M 0,0 C -0.513,0 -0.88,-0.392 -1.03,-1.099 H 0.75 C 0.758,-0.97 0.921,0 0,0" />
      </g>
      <g
         transform="matrix(0.35277777,0,0,-0.35277777,75.664247,27.413948)"
         id="g1140"
         style="opacity:1">
        <path
           inkscape:connector-curvature="0"
           id="path1142"
           style="fill:#231f20;fill-opacity:1;fill-rule:nonzero;stroke:none"
           d="m 0,0 c -0.735,0 -1.257,-0.858 -1.257,-2.07 0,-0.805 0.28,-1.213 0.831,-1.213 0.755,0 1.285,0.855 1.285,2.075 C 0.859,-0.425 0.557,0 0,0" />
      </g>
      <g
         transform="matrix(0.35277777,0,0,-0.35277777,75.816567,29.074076)"
         id="g1144"
         style="opacity:1">
        <path
           inkscape:connector-curvature="0"
           id="path1146"
           style="fill:#231f20;fill-opacity:1;fill-rule:nonzero;stroke:none"
           d="m 0,0 0.076,0.573 c -0.445,-0.475 -0.9,-0.68 -1.494,-0.68 -1.178,0 -1.958,1.015 -1.958,2.556 0,2.048 1.209,3.775 2.638,3.775 0.628,0 1.104,-0.256 1.548,-0.84 L 1.169,7.573 H 2.768 L 1.533,0 Z m -4.883,0 h -1.622 l 0.074,0.414 c 0.282,1.908 0.642,3.838 0.845,5.744 h 1.49 C -4.083,5.846 -4.154,5.54 -4.194,5.224 -3.697,5.953 -3.318,6.337 -2.639,6.196 -2.84,5.855 -3.11,5.18 -3.254,4.409 -4.164,4.501 -4.304,3.766 -4.883,0 m -2.163,0 h -1.343 l 0.031,0.638 c -0.41,-0.504 -0.956,-0.745 -1.698,-0.745 -0.88,0 -1.481,0.687 -1.481,1.683 0,1.5 1.046,2.374 2.845,2.374 0.184,0 0.419,-0.017 0.66,-0.048 0.05,0.203 0.064,0.29 0.064,0.4 0,0.408 -0.282,0.559 -1.04,0.559 -0.792,0.01 -1.446,-0.188 -1.715,-0.276 0.017,0.102 0.225,1.385 0.225,1.385 0.808,0.237 1.34,0.326 1.939,0.326 1.392,0 2.13,-0.625 2.128,-1.806 C -6.428,4.174 -6.48,3.783 -6.562,3.27 -6.702,2.379 -7.004,0.465 -7.046,0 m -4.962,0.115 c -0.597,-0.162 -0.983,-0.222 -1.432,-0.222 -1.745,0 -2.833,1.255 -2.833,3.27 0,2.707 1.503,4.599 3.651,4.599 0.708,0 1.544,-0.3 1.782,-0.393 l -0.266,-1.644 c -0.579,0.291 -0.998,0.409 -1.448,0.409 -1.21,0 -2.059,-1.17 -2.059,-2.838 0,-1.149 0.571,-1.843 1.513,-1.843 0.399,0 0.84,0.123 1.377,0.388 z M -18.227,0 h -1.621 l 0.074,0.414 c 0.281,1.908 0.642,3.838 0.846,5.744 h 1.488 c 0.014,-0.312 -0.057,-0.618 -0.097,-0.934 0.496,0.729 0.876,1.113 1.554,0.972 -0.2,-0.341 -0.47,-1.016 -0.616,-1.787 C -17.507,4.501 -17.646,3.766 -18.227,0 m -3.617,1.286 c 0.576,0 1.097,0.12 1.675,0.389 l -0.268,-1.533 c -0.553,-0.169 -1.088,-0.249 -1.653,-0.249 -1.804,0.001 -2.744,0.944 -2.744,2.748 0,2.105 1.196,3.655 2.819,3.655 1.329,0 2.177,-0.867 2.177,-2.229 0,-0.452 -0.059,-0.892 -0.198,-1.515 h -3.209 c -0.108,-0.893 0.464,-1.266 1.401,-1.266 m -3.755,0.113 c 0.184,0 0.327,0.018 0.437,0.058 l -0.215,-1.363 c -0.444,-0.14 -0.79,-0.201 -1.164,-0.201 -0.829,0 -1.282,0.477 -1.282,1.353 -0.011,0.273 0.12,0.988 0.223,1.641 0.093,0.577 0.703,4.203 0.703,4.203 h 1.611 l -0.189,-0.932 h 0.828 l -0.221,-1.479 h -0.83 c -0.187,-1.173 -0.454,-2.631 -0.457,-2.824 0,-0.319 0.17,-0.456 0.556,-0.456 m -3.579,2.268 c 0.812,-0.373 1.143,-0.869 1.143,-1.715 0,-1.408 -0.79,-2.059 -2.501,-2.059 -0.989,0.029 -1.318,0.102 -1.686,0.183 0.01,0.064 0.222,1.421 0.222,1.421 0.519,-0.167 0.969,-0.242 1.453,-0.242 0.641,0 0.931,0.173 0.931,0.557 0,0.28 -0.102,0.371 -0.758,0.68 -0.857,0.404 -1.235,0.94 -1.235,1.72 -0.005,1.137 0.622,2.084 2.436,2.084 0.37,0 1.007,-0.054 1.426,-0.12 l -0.23,-1.428 c -0.412,0.058 -0.847,0.093 -1.165,0.093 -0.524,0 -0.793,-0.171 -0.793,-0.504 0,-0.288 0.078,-0.357 0.757,-0.67 M -33.924,0 l 0.031,0.638 c -0.409,-0.504 -0.956,-0.745 -1.699,-0.745 -0.878,0 -1.48,0.687 -1.48,1.683 0,1.5 1.047,2.374 2.845,2.374 0.184,0 0.42,-0.017 0.661,-0.048 0.05,0.203 0.063,0.29 0.063,0.4 0,0.408 -0.282,0.559 -1.039,0.559 -0.793,0.01 -1.447,-0.188 -1.716,-0.276 0.017,0.102 0.225,1.385 0.225,1.385 0.807,0.237 1.34,0.326 1.94,0.326 1.392,0 2.129,-0.625 2.127,-1.806 0.003,-0.316 -0.049,-0.707 -0.131,-1.22 -0.14,-0.891 -0.442,-2.805 -0.484,-3.27 z m -5.448,0 0.929,5.821 L -40.516,0 h -1.105 L -41.758,5.787 -42.734,0 h -1.517 l 1.268,7.573 h 2.33 l 0.065,-4.688 1.573,4.688 h 2.518 L -37.751,0 Z m 28.532,18.86 c -3.823,0 -7.309,-1.438 -9.95,-3.801 -2.641,2.363 -6.127,3.801 -9.95,3.801 -8.246,0 -14.93,-6.685 -14.93,-14.931 0,-8.246 6.684,-14.93 14.93,-14.93 3.823,0 7.309,1.439 9.95,3.802 2.641,-2.363 6.127,-3.802 9.95,-3.802 8.246,0 14.93,6.684 14.93,14.93 0,8.246 -6.684,14.931 -14.93,14.931" />
      </g>
    </g>
    <g
       id="g2791"
       transform="matrix(4.41,0,0,4.41,-411.09464,-156.14741)">
      <g
         id="g2683">
        <g
           style="opacity:1"
           id="g1316"
           transform="matrix(0.35277777,0,0,-0.35277777,139.9961,25.048361)">
          <path
             d="m 0,0 -26.658,14.272 c -1.385,0.741 -2.887,0.779 -4.187,0.305 L -8.134,-8.134 Z"
             style="fill:#231f20;fill-opacity:1;fill-rule:nonzero;stroke:none"
             id="path1318"
             inkscape:connector-curvature="0" />
        </g>
        <g
           style="opacity:1"
           id="g1320"
           transform="matrix(0.35277777,0,0,-0.35277777,143.5031,26.925924)">
          <path
             d="m 0,0 -7.679,4.111 -8.659,-8.659 8.659,-8.66 L 0,-9.097 C 3.632,-7.152 3.632,-1.945 0,0"
             style="fill:#231f20;fill-opacity:1;fill-rule:nonzero;stroke:none"
             id="path1322"
             inkscape:connector-curvature="0" />
        </g>
        <g
           style="opacity:1"
           id="g1324"
           transform="matrix(0.35277777,0,0,-0.35277777,128.38113,20.397754)">
          <path
             d="m 0,0 c -0.815,-0.895 -1.328,-2.09 -1.328,-3.46 v -39.187 c 0,-1.37 0.513,-2.565 1.328,-3.46 l 23.054,23.054 z"
             style="fill:#231f20;fill-opacity:1;fill-rule:nonzero;stroke:none"
             id="path1326"
             inkscape:connector-curvature="0" />
        </g>
      </g>
      <g
         transform="matrix(0.35277777,0,0,-0.35277777,129.11466,37.155245)"
         id="g1328"
         style="opacity:1">
        <path
           inkscape:connector-curvature="0"
           id="path1330"
           style="fill:#231f20;fill-opacity:1;fill-rule:nonzero;stroke:none"
           d="m 0,0 c 1.3,-0.474 2.802,-0.436 4.187,0.306 l 26.658,14.271 -8.134,8.134 z" />
      </g>
    </g>
    <g
       id="g2687"
       transform="matrix(4.41,0,0,4.41,-816.18741,-242.03126)">
      <g
         transform="matrix(0.35277777,0,0,-0.35277777,140.96953,48.840038)"
         id="g1368"
         style="opacity:1">
        <path
           inkscape:connector-curvature="0"
           id="path1370"
           style="fill:#231f20;fill-opacity:1;fill-rule:nonzero;stroke:none"
           d="m 0,0 -4.469,-2.393 -5.04,5.04 5.04,5.04 L 0,5.294 C 2.114,4.163 2.114,1.132 0,0 m -21.3,-11.404 c -0.807,-0.431 -1.681,-0.453 -2.437,-0.177 l 13.217,13.217 4.734,-4.734 z m -4.421,2.648 v 22.807 c 0,0.797 0.299,1.492 0.773,2.013 L -11.531,2.647 -24.948,-10.77 c -0.474,0.521 -0.773,1.217 -0.773,2.014 M -21.3,16.698 -5.786,8.392 -10.52,3.658 -23.737,16.876 c 0.756,0.276 1.63,0.254 2.437,-0.178 m 7.115,10.292 c -13.6,0 -24.625,-11.023 -24.625,-24.623 0,-13.599 11.025,-24.625 24.625,-24.625 13.598,0 24.624,11.026 24.624,24.625 0,13.6 -11.026,24.623 -24.624,24.623" />
      </g>
    </g>
    <g
       id="g2699"
       transform="matrix(4.41,0,0,4.41,193.01446,-150.86639)">
      <g
         transform="matrix(0.35277777,0,0,-0.35277777,94.483477,30.039038)"
         id="g1640"
         style="opacity:1">
        <path
           inkscape:connector-curvature="0"
           id="path1642"
           style="fill:#231f20;fill-opacity:1;fill-rule:nonzero;stroke:none"
           d="m 0,0 c -1.933,0 -3.498,1.565 -3.498,3.497 0,1.929 1.565,3.495 3.498,3.495 1.931,0 3.496,-1.566 3.496,-3.495 C 3.496,1.565 1.931,0 0,0 m 0.695,-5.961 c -0.104,-0.109 -2.613,-2.661 -8.283,-2.661 -5.699,0 -7.979,2.588 -8.073,2.698 -0.321,0.375 -0.278,0.94 0.098,1.26 0.373,0.318 0.932,0.278 1.255,-0.092 0.051,-0.056 1.954,-2.079 6.72,-2.079 4.849,0 6.975,2.095 6.997,2.115 0.343,0.35 0.908,0.359 1.261,0.015 0.351,-0.342 0.364,-0.901 0.025,-1.256 m -18.789,9.458 c 0,1.929 1.564,3.495 3.497,3.495 1.931,0 3.496,-1.566 3.496,-3.495 0,-1.932 -1.565,-3.497 -3.496,-3.497 -1.933,0 -3.497,1.565 -3.497,3.497 m 35.287,3.872 c 0,3.138 -2.552,5.69 -5.69,5.69 -1.395,0 -2.711,-0.505 -3.75,-1.419 -3.763,2.408 -8.784,3.925 -14.322,4.088 l 3.389,11.591 8.32,-1.546 c 0,-0.068 -0.014,-0.132 -0.01,-0.201 0.101,-1.98 1.794,-3.508 3.774,-3.407 1.98,0.101 3.509,1.794 3.408,3.774 -0.101,1.98 -1.794,3.508 -3.774,3.407 -1.279,-0.065 -2.361,-0.798 -2.946,-1.839 -10e-4,0 -0.002,10e-4 -0.003,10e-4 L -4.437,29.37 -8.43,15.732 c -5.552,-0.148 -10.588,-1.657 -14.367,-4.06 -1.034,0.894 -2.336,1.387 -3.716,1.387 -3.137,0 -5.69,-2.552 -5.69,-5.69 0,-1.94 0.999,-3.73 2.617,-4.774 -0.098,-0.568 -0.154,-1.144 -0.154,-1.729 0,-8.213 9.955,-14.895 22.193,-14.895 12.238,0 22.193,6.682 22.193,14.895 0,0.568 -0.052,1.128 -0.145,1.68 1.662,1.036 2.692,2.852 2.692,4.823" />
      </g>
    </g>
    <g
       id="g2709"
       transform="matrix(4.41,0,0,4.41,-723.35346,-244.84799)">
      <g
         transform="matrix(0.35277777,0,0,-0.35277777,96.947697,49.749332)"
         id="g1676"
         style="opacity:1">
        <path
           inkscape:connector-curvature="0"
           id="path1678"
           style="fill:#231f20;fill-opacity:1;fill-rule:nonzero;stroke:none"
           d="m 0,0 c 0.061,-0.364 0.096,-0.734 0.096,-1.109 0,-5.42 -6.571,-9.831 -14.648,-9.831 -8.077,0 -14.648,4.411 -14.648,9.831 0,0.386 0.037,0.767 0.102,1.141 -1.068,0.69 -1.727,1.871 -1.727,3.151 0,2.071 1.685,3.756 3.755,3.756 0.911,0 1.77,-0.325 2.453,-0.916 2.494,1.586 5.818,2.582 9.482,2.68 l 2.636,9.001 6.617,-1.229 c 0,0 10e-4,-0.001 0.002,-0.001 0.386,0.687 1.1,1.172 1.944,1.214 1.307,0.067 2.424,-0.942 2.491,-2.249 0.066,-1.306 -0.942,-2.424 -2.249,-2.49 -1.307,-0.067 -2.424,0.942 -2.491,2.249 -0.002,0.045 0.006,0.087 0.006,0.132 l -5.491,1.02 -2.236,-7.649 c 3.655,-0.108 6.968,-1.11 9.452,-2.699 0.686,0.603 1.554,0.937 2.475,0.937 2.071,0 3.756,-1.685 3.756,-3.756 C 1.777,1.882 1.097,0.684 0,0 m -14.524,27.784 c -13.615,0 -24.651,-11.037 -24.651,-24.651 0,-13.615 11.036,-24.651 24.651,-24.651 13.614,0 24.651,11.036 24.651,24.651 0,13.614 -11.037,24.651 -24.651,24.651" />
      </g>
      <g
         transform="matrix(0.35277777,0,0,-0.35277777,93.433607,51.441104)"
         id="g1680"
         style="opacity:1">
        <path
           inkscape:connector-curvature="0"
           id="path1682"
           style="fill:#231f20;fill-opacity:1;fill-rule:nonzero;stroke:none"
           d="m 0,0 c -0.014,-0.014 -1.417,-1.396 -4.618,-1.396 -3.146,0 -4.402,1.335 -4.436,1.372 -0.212,0.244 -0.581,0.271 -0.828,0.061 -0.247,-0.211 -0.276,-0.584 -0.064,-0.832 0.062,-0.073 1.566,-1.781 5.328,-1.781 3.742,0 5.398,1.685 5.467,1.757 C 1.073,-0.585 1.064,-0.216 0.833,0.01 0.6,0.237 0.227,0.231 0,0" />
      </g>
      <g
         transform="matrix(0.35277777,0,0,-0.35277777,93.571277,48.714097)"
         id="g1684"
         style="opacity:1">
        <path
           inkscape:connector-curvature="0"
           id="path1686"
           style="fill:#231f20;fill-opacity:1;fill-rule:nonzero;stroke:none"
           d="m 0,0 c -1.276,0 -2.308,-1.033 -2.308,-2.307 0,-1.275 1.032,-2.308 2.308,-2.308 1.274,0 2.307,1.033 2.307,2.308 C 2.307,-1.033 1.274,0 0,0" />
      </g>
      <g
         transform="matrix(0.35277777,0,0,-0.35277777,90.986477,49.528008)"
         id="g1688"
         style="opacity:1">
        <path
           inkscape:connector-curvature="0"
           id="path1690"
           style="fill:#231f20;fill-opacity:1;fill-rule:nonzero;stroke:none"
           d="m 0,0 c 0,1.274 -1.033,2.307 -2.307,2.307 -1.276,0 -2.309,-1.033 -2.309,-2.307 0,-1.275 1.033,-2.308 2.309,-2.308 C -1.033,-2.308 0,-1.275 0,0" />
      </g>
    </g>
    <g
       transform="matrix(4.41,0,0,4.41,307.83604,-48.885419)"
       id="g3940"
       style="fill:#fffff5;fill-opacity:1">
      <g
         style="opacity:1;fill:#fffff5;fill-opacity:1"
         id="g3930"
         transform="matrix(0.35277777,0,0,-0.35277777,18.396417,24.031621)">
        <path
           d="m 0,0 c -0.537,0 -0.97,-0.434 -0.97,-0.97 0,-0.535 0.433,-0.969 0.97,-0.969 0.535,0 0.969,0.434 0.969,0.969 C 0.969,-0.434 0.535,0 0,0"
           style="fill:#fffff5;fill-opacity:1;fill-rule:nonzero;stroke:none"
           id="path3928"
           inkscape:connector-curvature="0" />
      </g>
      <g
         style="opacity:1;fill:#fffff5;fill-opacity:1"
         id="g3934"
         transform="matrix(0.35277777,0,0,-0.35277777,24.781547,29.694656)">
        <path
           d="m 0,0 c 0,-1.072 -0.867,-1.939 -1.938,-1.939 -1.073,0 -1.941,0.867 -1.941,1.939 v 8.296 c 0,1.071 0.868,1.939 1.941,1.939 C -0.867,10.235 0,9.367 0,8.296 Z m -23.271,11.528 c 0,2.771 1.855,5.192 4.598,6.468 l -0.362,0.547 -0.361,0.539 -0.805,1.209 c -0.099,0.149 -0.059,0.35 0.09,0.448 0.148,0.099 0.348,0.059 0.449,-0.09 l 0.864,-1.296 0.363,-0.545 0.368,-0.553 c 1.168,0.453 2.47,0.707 3.844,0.707 1.375,0 2.679,-0.254 3.846,-0.707 l 0.369,0.553 0.364,0.545 0.865,1.296 c 0.097,0.15 0.298,0.191 0.448,0.09 0.147,-0.098 0.188,-0.299 0.088,-0.448 l -0.805,-1.209 -0.359,-0.539 -0.364,-0.547 c 2.743,-1.276 4.599,-3.697 4.599,-6.468 z M -5.172,8.622 V 7.307 -3.987 c 0,-1.129 -0.917,-2.048 -2.047,-2.048 h -1.476 c 0.048,-0.171 0.076,-0.352 0.076,-0.537 v -0.109 -0.646 -3.34 c 0,-1.071 -0.868,-1.94 -1.941,-1.94 -1.069,0 -1.939,0.869 -1.939,1.94 v 3.34 0.646 0.109 c 0,0.185 0.028,0.366 0.078,0.537 h -3.601 c 0.048,-0.171 0.077,-0.352 0.077,-0.537 v -0.109 -0.646 -3.34 c 0,-1.071 -0.869,-1.94 -1.94,-1.94 -1.071,0 -1.94,0.869 -1.94,1.94 v 3.34 0.646 0.109 c 0,0.185 0.028,0.366 0.078,0.537 h -1.479 c -1.128,0 -2.045,0.919 -2.045,2.048 v 11.294 1.315 1.613 h 0.139 17.821 0.139 z M -24.564,0 c 0,-1.072 -0.87,-1.939 -1.941,-1.939 -1.071,0 -1.938,0.867 -1.938,1.939 v 8.296 c 0,1.071 0.867,1.939 1.938,1.939 1.071,0 1.941,-0.868 1.941,-1.939 z m 10.333,28.684 c -13.6,0 -24.625,-11.024 -24.625,-24.623 0,-13.6 11.025,-24.625 24.625,-24.625 13.598,0 24.624,11.025 24.624,24.625 0,13.599 -11.026,24.623 -24.624,24.623"
           style="fill:#fffff5;fill-opacity:1;fill-rule:nonzero;stroke:none"
           id="path3932"
           inkscape:connector-curvature="0" />
      </g>
      <g
         style="opacity:1;fill:#fffff5;fill-opacity:1"
         id="g3938"
         transform="matrix(0.35277777,0,0,-0.35277777,21.132877,24.031621)">
        <path
           d="m 0,0 c -0.536,0 -0.97,-0.434 -0.97,-0.97 0,-0.535 0.434,-0.969 0.97,-0.969 0.535,0 0.97,0.434 0.97,0.969 C 0.97,-0.434 0.535,0 0,0"
           style="fill:#fffff5;fill-opacity:1;fill-rule:nonzero;stroke:none"
           id="path3936"
           inkscape:connector-curvature="0" />
      </g>
    </g>
    <g
       transform="matrix(4.41,0,0,4.41,-517.57444,-47.969502)"
       id="g3946"
       style="fill:#fffff5;fill-opacity:1">
      <g
         style="opacity:1;fill:#fffff5;fill-opacity:1"
         id="g3944"
         transform="matrix(0.35277777,0,0,-0.35277777,123.60429,22.664598)">
        <path
           d="m 0,0 c -1.811,-0.805 -3.76,-1.348 -5.805,-1.591 2.087,1.25 3.689,3.23 4.444,5.592 -1.953,-1.159 -4.115,-2 -6.418,-2.454 -1.843,1.964 -4.47,3.192 -7.377,3.192 -5.581,0 -10.107,-4.525 -10.107,-10.107 0,-0.792 0.09,-1.563 0.262,-2.303 -8.4,0.421 -15.848,4.444 -20.832,10.56 -0.87,-1.492 -1.369,-3.228 -1.369,-5.081 0,-3.507 1.785,-6.6 4.496,-8.413 -1.656,0.053 -3.215,0.507 -4.577,1.265 -10e-4,-0.042 -10e-4,-0.085 -10e-4,-0.128 0,-4.896 3.484,-8.981 8.108,-9.91 -0.848,-0.231 -1.741,-0.355 -2.663,-0.355 -0.652,0 -1.285,0.063 -1.902,0.182 1.287,-4.015 5.019,-6.938 9.441,-7.019 -3.459,-2.711 -7.817,-4.327 -12.553,-4.327 -0.815,0 -1.619,0.048 -2.41,0.141 4.473,-2.868 9.785,-4.541 15.493,-4.541 18.591,0 28.756,15.401 28.756,28.757 0,0.438 -0.009,0.875 -0.028,1.308 C -3.068,-3.807 -1.354,-2.027 0,0"
           style="fill:#fffff5;fill-opacity:1;fill-rule:nonzero;stroke:none"
           id="path3942"
           inkscape:connector-curvature="0" />
      </g>
    </g>
    <g
       transform="matrix(4.41,0,0,4.41,-919.15053,-134.42269)"
       id="g3952"
       style="fill:#fffff5;fill-opacity:1">
      <g
         style="opacity:1;fill:#fffff5;fill-opacity:1"
         id="g3950"
         transform="matrix(0.35277777,0,0,-0.35277777,117.50564,45.907397)">
        <path
           d="m 0,0 c 0.012,-0.267 0.017,-0.534 0.017,-0.803 0,-8.201 -6.242,-17.657 -17.656,-17.657 -3.504,0 -6.767,1.028 -9.513,2.788 0.485,-0.057 0.979,-0.086 1.48,-0.086 2.908,0 5.584,0.992 7.707,2.656 -2.715,0.051 -5.007,1.845 -5.796,4.31 0.378,-0.073 0.766,-0.111 1.167,-0.111 0.567,0 1.115,0.075 1.636,0.217 -2.84,0.571 -4.979,3.08 -4.979,6.084 0,0.028 0,0.053 0.001,0.08 0.836,-0.465 1.793,-0.745 2.81,-0.778 -1.665,1.115 -2.761,3.013 -2.761,5.166 0,1.138 0.306,2.204 0.841,3.12 3.06,-3.755 7.633,-6.224 12.791,-6.483 -0.106,0.454 -0.16,0.928 -0.16,1.414 0,3.427 2.778,6.205 6.205,6.205 1.785,0 3.398,-0.754 4.529,-1.959 C -0.266,4.44 1.061,4.958 2.261,5.669 1.797,4.219 0.813,3.003 -0.469,2.235 0.788,2.386 1.983,2.72 3.096,3.213 2.265,1.969 1.212,0.875 0,0 m -12.405,19.66 c -13.6,0 -24.625,-11.027 -24.625,-24.625 0,-13.599 11.025,-24.623 24.625,-24.623 13.599,0 24.623,11.024 24.623,24.623 0,13.598 -11.024,24.625 -24.623,24.625"
           style="fill:#fffff5;fill-opacity:1;fill-rule:nonzero;stroke:none"
           id="path3948"
           inkscape:connector-curvature="0" />
      </g>
    </g>
    <g
       transform="matrix(4.41,0,0,4.41,-2.3792366,-144.8817)"
       id="g3970"
       style="fill:#fffff5;fill-opacity:1">
      <g
         style="opacity:1;fill:#fffff5;fill-opacity:1"
         id="g3956"
         transform="matrix(0.35277777,0,0,-0.35277777,22.751547,44.729657)">
        <path
           d="m 0,0 c -0.803,0 -1.453,0.651 -1.453,1.454 0,0.803 0.65,1.453 1.453,1.453 0.804,0 1.454,-0.65 1.454,-1.453 C 1.454,0.651 0.804,0 0,0 m -11.632,0 c -0.803,0 -1.454,0.651 -1.454,1.454 0,0.803 0.651,1.453 1.454,1.453 0.803,0 1.454,-0.65 1.454,-1.453 C -10.178,0.651 -10.829,0 -11.632,0 M 0.857,5.823 1.403,6.643 1.941,7.45 3.15,9.264 C 3.299,9.486 3.238,9.787 3.017,9.936 2.793,10.085 2.492,10.025 2.344,9.801 L 1.048,7.857 0.503,7.039 -0.05,6.211 c -1.751,0.679 -3.705,1.06 -5.766,1.06 -2.061,0 -4.015,-0.381 -5.766,-1.06 l -0.552,0.828 -0.544,0.818 -1.298,1.944 c -0.148,0.223 -0.449,0.283 -0.672,0.135 -0.222,-0.149 -0.283,-0.45 -0.134,-0.672 l 1.208,-1.814 0.539,-0.807 0.546,-0.82 c -4.114,-1.916 -6.898,-5.546 -6.898,-9.701 H 7.755 c 0,4.155 -2.783,7.785 -6.898,9.701"
           style="fill:#fffff5;fill-opacity:1;fill-rule:nonzero;stroke:none"
           id="path3954"
           inkscape:connector-curvature="0" />
      </g>
      <g
         style="opacity:1;fill:#fffff5;fill-opacity:1"
         id="g3960"
         transform="matrix(0.35277777,0,0,-0.35277777,15.986087,46.781553)">
        <path
           d="m 0,0 h -0.209 v -2.419 -1.972 -16.935 c 0,-1.694 1.376,-3.071 3.069,-3.071 H 5.076 C 5.002,-24.653 4.96,-24.924 4.96,-25.204 v -0.161 -0.97 -5.009 c 0,-1.605 1.303,-2.908 2.908,-2.908 1.607,0 2.909,1.303 2.909,2.908 v 5.009 0.97 0.161 c 0,0.28 -0.043,0.551 -0.116,0.807 h 5.401 c -0.074,-0.256 -0.116,-0.527 -0.116,-0.807 v -0.161 -0.97 -5.009 c 0,-1.605 1.303,-2.908 2.908,-2.908 1.607,0 2.91,1.303 2.91,2.908 v 5.009 0.97 0.161 c 0,0.28 -0.042,0.551 -0.117,0.807 h 2.216 c 1.694,0 3.07,1.377 3.07,3.071 V -4.391 -2.419 0 h -0.209 z"
           style="fill:#fffff5;fill-opacity:1;fill-rule:nonzero;stroke:none"
           id="path3958"
           inkscape:connector-curvature="0" />
      </g>
      <g
         style="opacity:1;fill:#fffff5;fill-opacity:1"
         id="g3964"
         transform="matrix(0.35277777,0,0,-0.35277777,14.202187,46.781553)">
        <path
           d="m 0,0 c -1.606,0 -2.908,-1.302 -2.908,-2.908 v -12.441 c 0,-1.605 1.302,-2.908 2.908,-2.908 1.606,0 2.908,1.303 2.908,2.908 V -2.908 C 2.908,-1.302 1.606,0 0,0"
           style="fill:#fffff5;fill-opacity:1;fill-rule:nonzero;stroke:none"
           id="path3962"
           inkscape:connector-curvature="0" />
      </g>
      <g
         style="opacity:1;fill:#fffff5;fill-opacity:1"
         id="g3968"
         transform="matrix(0.35277777,0,0,-0.35277777,27.197427,46.781553)">
        <path
           d="m 0,0 c -1.606,0 -2.908,-1.302 -2.908,-2.908 v -12.441 c 0,-1.605 1.302,-2.908 2.908,-2.908 1.607,0 2.907,1.303 2.907,2.908 V -2.908 C 2.907,-1.302 1.607,0 0,0"
           style="fill:#fffff5;fill-opacity:1;fill-rule:nonzero;stroke:none"
           id="path3966"
           inkscape:connector-curvature="0" />
      </g>
    </g>
    <g
       transform="matrix(4.41,0,0,4.41,292.96134,-140.30673)"
       id="g3980"
       style="fill:#fffff5;fill-opacity:1">
      <g
         style="opacity:1;fill:#fffff5;fill-opacity:1"
         id="g3974"
         transform="matrix(0.35277777,0,0,-0.35277777,51.468227,51.013193)">
        <path
           d="M 0,0 -0.357,1.706 H -4.148 L -4.765,0 h -3.102 l 4.434,10.585 c 0.213,0.508 0.691,0.839 1.258,0.839 H 0.348 L 2.734,0 Z m -12.858,-0.179 c -1.322,0.014 -2.596,0.29 -3.286,0.607 l 0.536,2.503 c 0.686,-0.32 1.549,-0.745 3.034,-0.722 0.85,0.014 1.76,0.352 1.769,1.119 0.005,0.5 -0.383,0.859 -1.533,1.419 -1.12,0.547 -2.607,1.464 -2.587,3.109 0.016,2.223 2.072,3.776 4.993,3.776 1.139,0 2.053,-0.248 2.765,-0.507 l -0.52,-2.422 c -1.322,0.61 -2.49,0.567 -2.913,0.511 -0.854,-0.111 -1.244,-0.547 -1.253,-0.956 -0.029,-1.347 4.152,-1.514 4.14,-4.528 -0.01,-2.376 -2.041,-3.909 -5.145,-3.909 M -21.129,0 l 2.444,11.424 h 2.955 L -18.174,0 Z m -6.736,0 -2.356,9.116 c -0.143,0.561 -0.267,0.768 -0.702,1.004 -0.71,0.386 -1.883,0.747 -2.916,0.972 l 0.07,0.332 h 5.029 c 0.64,0 1.217,-0.426 1.363,-1.165 l 1.244,-6.611 3.076,7.776 h 3.104 L -24.741,0 Z m 13.134,30.351 c -13.6,0 -24.625,-11.024 -24.625,-24.623 0,-13.6 11.025,-24.625 24.625,-24.625 13.598,0 24.624,11.025 24.624,24.625 0,13.599 -11.026,24.623 -24.624,24.623"
           style="fill:#fffff5;fill-opacity:1;fill-rule:nonzero;stroke:none"
           id="path3972"
           inkscape:connector-curvature="0" />
      </g>
      <g
         style="opacity:1;fill:#fffff5;fill-opacity:1"
         id="g3978"
         transform="matrix(0.35277777,0,0,-0.35277777,50.304967,49.585264)">
        <path
           d="M 0,0 H 2.452 L 1.556,4.289 Z"
           style="fill:#fffff5;fill-opacity:1;fill-rule:nonzero;stroke:none"
           id="path3976"
           inkscape:connector-curvature="0" />
      </g>
    </g>
    <g
       transform="matrix(4.41,0,0,4.41,-9.4206836,-143.43554)"
       id="g4004"
       style="fill:#fffff5;fill-opacity:1">
      <g
         id="g4002"
         style="fill:#fffff5;fill-opacity:1">
        <g
           transform="matrix(0.35277777,0,0,-0.35277777,63.732777,50.342501)"
           id="g3984"
           style="opacity:1;fill:#fffff5;fill-opacity:1">
          <path
             inkscape:connector-curvature="0"
             id="path3982"
             style="fill:#fffff5;fill-opacity:1;fill-rule:nonzero;stroke:none"
             d="m 0,0 c 0,-0.348 0.206,-0.571 0.528,-0.571 0.601,0 1.033,0.571 1.059,1.4 C 1.432,0.847 1.364,0.852 1.258,0.852 0.423,0.852 0,0.566 0,0" />
        </g>
        <g
           transform="matrix(0.35277777,0,0,-0.35277777,68.034377,49.360421)"
           id="g3988"
           style="opacity:1;fill:#fffff5;fill-opacity:1">
          <path
             inkscape:connector-curvature="0"
             id="path3986"
             style="fill:#fffff5;fill-opacity:1;fill-rule:nonzero;stroke:none"
             d="M 0,0 C -0.466,0 -0.8,-0.356 -0.936,-0.999 H 0.682 C 0.69,-0.882 0.837,0 0,0" />
        </g>
        <g
           transform="matrix(0.35277777,0,0,-0.35277777,75.119597,50.929982)"
           id="g3992"
           style="opacity:1;fill:#fffff5;fill-opacity:1">
          <path
             inkscape:connector-curvature="0"
             id="path3990"
             style="fill:#fffff5;fill-opacity:1;fill-rule:nonzero;stroke:none"
             d="M 0,0 0.069,0.521 C -0.335,0.089 -0.75,-0.097 -1.29,-0.097 c -1.07,0 -1.779,0.923 -1.779,2.323 0,1.863 1.099,3.432 2.398,3.432 0.571,0 1.004,-0.233 1.407,-0.763 L 1.063,6.884 H 2.516 L 1.394,0 Z m -4.44,0 h -1.474 l 0.068,0.377 c 0.256,1.734 0.584,3.489 0.768,5.222 h 1.354 C -3.712,5.314 -3.777,5.036 -3.813,4.75 -3.361,5.412 -3.016,5.761 -2.399,5.633 -2.582,5.323 -2.827,4.71 -2.959,4.009 -3.786,4.092 -3.913,3.424 -4.44,0 m -1.965,0 h -1.221 l 0.027,0.58 c -0.372,-0.458 -0.869,-0.677 -1.543,-0.677 -0.8,0 -1.346,0.624 -1.346,1.53 0,1.364 0.951,2.158 2.586,2.158 0.167,0 0.381,-0.016 0.6,-0.044 0.046,0.185 0.058,0.264 0.058,0.364 0,0.371 -0.256,0.509 -0.945,0.509 -0.72,0.008 -1.314,-0.171 -1.559,-0.251 0.015,0.092 0.204,1.259 0.204,1.259 0.734,0.215 1.218,0.296 1.763,0.296 1.265,0 1.936,-0.568 1.935,-1.642 C -5.844,3.794 -5.891,3.439 -5.965,2.973 -6.093,2.163 -6.368,0.423 -6.405,0 m -4.512,0.105 c -0.542,-0.148 -0.893,-0.202 -1.302,-0.202 -1.586,0 -2.574,1.141 -2.574,2.972 0,2.461 1.366,4.181 3.318,4.181 0.644,0 1.404,-0.272 1.62,-0.357 l -0.241,-1.494 c -0.526,0.264 -0.908,0.372 -1.317,0.372 -1.1,0 -1.871,-1.064 -1.871,-2.58 0,-1.045 0.518,-1.677 1.375,-1.677 0.363,0 0.764,0.113 1.251,0.354 z M -16.57,0 h -1.474 l 0.067,0.377 c 0.256,1.734 0.584,3.489 0.769,5.222 h 1.353 c 0.013,-0.285 -0.052,-0.563 -0.088,-0.849 0.451,0.662 0.796,1.011 1.413,0.883 C -14.712,5.323 -14.958,4.71 -15.09,4.009 -15.916,4.092 -16.042,3.424 -16.57,0 m -3.289,1.169 c 0.524,0 0.997,0.109 1.524,0.354 L -18.579,0.13 c -0.503,-0.155 -0.989,-0.228 -1.503,-0.227 -1.64,0.001 -2.495,0.858 -2.495,2.498 0,1.914 1.087,3.323 2.563,3.323 1.209,0 1.98,-0.789 1.98,-2.027 0,-0.41 -0.054,-0.811 -0.181,-1.376 h -2.917 c -0.099,-0.813 0.422,-1.152 1.273,-1.152 m -3.414,0.102 c 0.169,0 0.298,0.017 0.398,0.053 L -23.07,0.085 c -0.404,-0.127 -0.718,-0.182 -1.059,-0.182 -0.753,0 -1.165,0.433 -1.165,1.23 -0.01,0.248 0.109,0.898 0.203,1.492 0.085,0.524 0.639,3.821 0.639,3.821 h 1.464 l -0.171,-0.847 h 0.752 l -0.2,-1.346 h -0.755 c -0.17,-1.065 -0.412,-2.391 -0.415,-2.567 0,-0.289 0.154,-0.415 0.504,-0.415 m -3.253,2.063 c 0.739,-0.339 1.039,-0.79 1.039,-1.56 0,-1.279 -0.718,-1.871 -2.273,-1.871 -0.9,0.026 -1.198,0.093 -1.533,0.166 0.009,0.058 0.202,1.292 0.202,1.292 0.472,-0.152 0.881,-0.22 1.321,-0.22 0.583,0 0.846,0.157 0.846,0.506 0,0.255 -0.092,0.338 -0.689,0.618 -0.779,0.368 -1.122,0.855 -1.122,1.564 -0.005,1.034 0.565,1.895 2.214,1.895 0.336,0 0.915,-0.049 1.297,-0.109 l -0.21,-1.299 c -0.375,0.053 -0.77,0.085 -1.059,0.085 -0.476,0 -0.721,-0.156 -0.721,-0.458 0,-0.262 0.071,-0.325 0.688,-0.609 M -30.84,0 l 0.028,0.58 c -0.372,-0.458 -0.87,-0.677 -1.544,-0.677 -0.799,0 -1.347,0.624 -1.347,1.53 0,1.364 0.953,2.158 2.588,2.158 0.167,0 0.381,-0.016 0.6,-0.044 0.046,0.185 0.058,0.264 0.058,0.364 0,0.371 -0.257,0.509 -0.945,0.509 -0.721,0.008 -1.316,-0.171 -1.56,-0.251 0.015,0.092 0.204,1.259 0.204,1.259 0.735,0.215 1.219,0.296 1.764,0.296 1.265,0 1.935,-0.568 1.934,-1.642 0.003,-0.288 -0.045,-0.643 -0.119,-1.109 -0.128,-0.81 -0.403,-2.55 -0.44,-2.973 z m -4.953,0 0.844,5.292 L -36.833,0 h -1.005 L -37.962,5.261 -38.849,0 h -1.379 l 1.152,6.884 h 2.119 l 0.059,-4.261 1.43,4.261 h 2.288 L -34.32,0 Z m 16.804,28.104 c -13.599,0 -24.625,-11.024 -24.625,-24.623 0,-13.6 11.026,-24.625 24.625,-24.625 13.599,0 24.624,11.025 24.624,24.625 0,13.599 -11.025,24.623 -24.624,24.623" />
        </g>
        <g
           transform="matrix(0.35277777,0,0,-0.35277777,71.922167,50.342501)"
           id="g3996"
           style="opacity:1;fill:#fffff5;fill-opacity:1">
          <path
             inkscape:connector-curvature="0"
             id="path3994"
             style="fill:#fffff5;fill-opacity:1;fill-rule:nonzero;stroke:none"
             d="m 0,0 c 0,-0.348 0.206,-0.571 0.528,-0.571 0.6,0 1.033,0.571 1.058,1.4 C 1.432,0.847 1.364,0.852 1.258,0.852 0.423,0.852 0,0.566 0,0" />
        </g>
        <g
           transform="matrix(0.35277777,0,0,-0.35277777,74.981097,49.420719)"
           id="g4000"
           style="opacity:1;fill:#fffff5;fill-opacity:1">
          <path
             inkscape:connector-curvature="0"
             id="path3998"
             style="fill:#fffff5;fill-opacity:1;fill-rule:nonzero;stroke:none"
             d="m 0,0 c -0.668,0 -1.143,-0.78 -1.143,-1.881 0,-0.733 0.254,-1.103 0.755,-1.103 0.687,0 1.169,0.777 1.169,1.886 C 0.781,-0.386 0.506,0 0,0" />
        </g>
      </g>
    </g>
    <g
       transform="matrix(4.41,0,0,4.41,496.41068,-44.445621)"
       id="g4022"
       style="fill:#fffff5;fill-opacity:1">
      <g
         style="opacity:1;fill:#fffff5;fill-opacity:1"
         id="g4008"
         transform="matrix(0.35277777,0,0,-0.35277777,43.871967,24.582086)">
        <path
           d="M 0,0 -3.252,-15.198 H 0.68 L 3.931,0 Z"
           style="fill:#fffff5;fill-opacity:1;fill-rule:nonzero;stroke:none"
           id="path4006"
           inkscape:connector-curvature="0" />
      </g>
      <g
         style="opacity:1;fill:#fffff5;fill-opacity:1"
         id="g4012"
         transform="matrix(0.35277777,0,0,-0.35277777,41.820077,24.582086)">
        <path
           d="m 0,0 -4.092,-10.344 -1.655,8.795 C -5.942,-0.566 -6.708,0 -7.561,0 h -6.69 l -0.092,-0.441 c 1.373,-0.299 2.934,-0.78 3.878,-1.294 0.579,-0.313 0.744,-0.588 0.934,-1.335 l 3.135,-12.128 h 4.155 L 4.129,0 Z"
           style="fill:#fffff5;fill-opacity:1;fill-rule:nonzero;stroke:none"
           id="path4010"
           inkscape:connector-curvature="0" />
      </g>
      <g
         style="opacity:1;fill:#fffff5;fill-opacity:1"
         id="g4016"
         transform="matrix(0.35277777,0,0,-0.35277777,51.093717,28.043789)">
        <path
           d="M 0,0 2.07,5.706 3.261,0 Z M 4.85,9.813 H 1.493 c -0.755,0 -1.39,-0.44 -1.673,-1.115 L -6.079,-5.385 h 4.127 l 0.821,2.269 h 5.043 l 0.475,-2.269 h 3.637 z"
           style="fill:#fffff5;fill-opacity:1;fill-rule:nonzero;stroke:none"
           id="path4014"
           inkscape:connector-curvature="0" />
      </g>
      <g
         style="opacity:1;fill:#fffff5;fill-opacity:1"
         id="g4020"
         transform="matrix(0.35277777,0,0,-0.35277777,47.078197,26.067642)">
        <path
           d="M 0,0 C 0.013,0.544 0.532,1.123 1.668,1.271 2.23,1.346 3.784,1.403 5.543,0.592 L 6.235,3.814 C 5.288,4.158 4.071,4.489 2.556,4.489 c -3.886,0 -6.62,-2.067 -6.642,-5.024 -0.027,-2.188 1.951,-3.409 3.441,-4.136 1.531,-0.745 2.046,-1.223 2.04,-1.889 -0.012,-1.02 -1.222,-1.47 -2.354,-1.487 -1.976,-0.031 -3.124,0.533 -4.036,0.96 l -0.713,-3.33 c 0.918,-0.422 2.613,-0.79 4.372,-0.807 4.13,0 6.831,2.039 6.844,5.199 C 5.525,-2.015 -0.038,-1.793 0,0"
           style="fill:#fffff5;fill-opacity:1;fill-rule:nonzero;stroke:none"
           id="path4018"
           inkscape:connector-curvature="0" />
      </g>
    </g>
    <g
       transform="matrix(4.41,0,0,4.41,-416.38191,-46.351677)"
       id="g4044"
       style="fill:#fffff5;fill-opacity:1">
      <g
         style="opacity:1;fill:#fffff5;fill-opacity:1"
         id="g4026"
         transform="matrix(0.35277777,0,0,-0.35277777,63.291197,28.427911)">
        <path
           d="m 0,0 c 0,-0.383 0.227,-0.628 0.581,-0.628 0.661,0 1.136,0.629 1.164,1.54 C 1.576,0.931 1.5,0.937 1.384,0.937 0.465,0.937 0,0.622 0,0"
           style="fill:#fffff5;fill-opacity:1;fill-rule:nonzero;stroke:none"
           id="path4024"
           inkscape:connector-curvature="0" />
      </g>
      <g
         style="opacity:1;fill:#fffff5;fill-opacity:1"
         id="g4030"
         transform="matrix(0.35277777,0,0,-0.35277777,72.299487,28.427911)">
        <path
           d="m 0,0 c 0,-0.383 0.227,-0.628 0.581,-0.628 0.66,0 1.136,0.629 1.163,1.54 C 1.575,0.931 1.5,0.937 1.383,0.937 0.465,0.937 0,0.622 0,0"
           style="fill:#fffff5;fill-opacity:1;fill-rule:nonzero;stroke:none"
           id="path4028"
           inkscape:connector-curvature="0" />
      </g>
      <g
         style="opacity:1;fill:#fffff5;fill-opacity:1"
         id="g4034"
         transform="matrix(0.35277777,0,0,-0.35277777,68.022917,27.347617)">
        <path
           d="M 0,0 C -0.513,0 -0.88,-0.392 -1.03,-1.099 H 0.75 C 0.758,-0.97 0.921,0 0,0"
           style="fill:#fffff5;fill-opacity:1;fill-rule:nonzero;stroke:none"
           id="path4032"
           inkscape:connector-curvature="0" />
      </g>
      <g
         style="opacity:1;fill:#fffff5;fill-opacity:1"
         id="g4038"
         transform="matrix(0.35277777,0,0,-0.35277777,75.664247,27.413948)">
        <path
           d="m 0,0 c -0.735,0 -1.257,-0.858 -1.257,-2.07 0,-0.805 0.28,-1.213 0.831,-1.213 0.755,0 1.285,0.855 1.285,2.075 C 0.859,-0.425 0.557,0 0,0"
           style="fill:#fffff5;fill-opacity:1;fill-rule:nonzero;stroke:none"
           id="path4036"
           inkscape:connector-curvature="0" />
      </g>
      <g
         style="opacity:1;fill:#fffff5;fill-opacity:1"
         id="g4042"
         transform="matrix(0.35277777,0,0,-0.35277777,75.816567,29.074076)">
        <path
           d="m 0,0 0.076,0.573 c -0.445,-0.475 -0.9,-0.68 -1.494,-0.68 -1.178,0 -1.958,1.015 -1.958,2.556 0,2.048 1.209,3.775 2.638,3.775 0.628,0 1.104,-0.256 1.548,-0.84 L 1.169,7.573 H 2.768 L 1.533,0 Z m -4.883,0 h -1.622 l 0.074,0.414 c 0.282,1.908 0.642,3.838 0.845,5.744 h 1.49 C -4.083,5.846 -4.154,5.54 -4.194,5.224 -3.697,5.953 -3.318,6.337 -2.639,6.196 -2.84,5.855 -3.11,5.18 -3.254,4.409 -4.164,4.501 -4.304,3.766 -4.883,0 m -2.163,0 h -1.343 l 0.031,0.638 c -0.41,-0.504 -0.956,-0.745 -1.698,-0.745 -0.88,0 -1.481,0.687 -1.481,1.683 0,1.5 1.046,2.374 2.845,2.374 0.184,0 0.419,-0.017 0.66,-0.048 0.05,0.203 0.064,0.29 0.064,0.4 0,0.408 -0.282,0.559 -1.04,0.559 -0.792,0.01 -1.446,-0.188 -1.715,-0.276 0.017,0.102 0.225,1.385 0.225,1.385 0.808,0.237 1.34,0.326 1.939,0.326 1.392,0 2.13,-0.625 2.128,-1.806 C -6.428,4.174 -6.48,3.783 -6.562,3.27 -6.702,2.379 -7.004,0.465 -7.046,0 m -4.962,0.115 c -0.597,-0.162 -0.983,-0.222 -1.432,-0.222 -1.745,0 -2.833,1.255 -2.833,3.27 0,2.707 1.503,4.599 3.651,4.599 0.708,0 1.544,-0.3 1.782,-0.393 l -0.266,-1.644 c -0.579,0.291 -0.998,0.409 -1.448,0.409 -1.21,0 -2.059,-1.17 -2.059,-2.838 0,-1.149 0.571,-1.843 1.513,-1.843 0.399,0 0.84,0.123 1.377,0.388 z M -18.227,0 h -1.621 l 0.074,0.414 c 0.281,1.908 0.642,3.838 0.846,5.744 h 1.488 c 0.014,-0.312 -0.057,-0.618 -0.097,-0.934 0.496,0.729 0.876,1.113 1.554,0.972 -0.2,-0.341 -0.47,-1.016 -0.616,-1.787 C -17.507,4.501 -17.646,3.766 -18.227,0 m -3.617,1.286 c 0.576,0 1.097,0.12 1.675,0.389 l -0.268,-1.533 c -0.553,-0.169 -1.088,-0.249 -1.653,-0.249 -1.804,0.001 -2.744,0.944 -2.744,2.748 0,2.105 1.196,3.655 2.819,3.655 1.329,0 2.177,-0.867 2.177,-2.229 0,-0.452 -0.059,-0.892 -0.198,-1.515 h -3.209 c -0.108,-0.893 0.464,-1.266 1.401,-1.266 m -3.755,0.113 c 0.184,0 0.327,0.018 0.437,0.058 l -0.215,-1.363 c -0.444,-0.14 -0.79,-0.201 -1.164,-0.201 -0.829,0 -1.282,0.477 -1.282,1.353 -0.011,0.273 0.12,0.988 0.223,1.641 0.093,0.577 0.703,4.203 0.703,4.203 h 1.611 l -0.189,-0.932 h 0.828 l -0.221,-1.479 h -0.83 c -0.187,-1.173 -0.454,-2.631 -0.457,-2.824 0,-0.319 0.17,-0.456 0.556,-0.456 m -3.579,2.268 c 0.812,-0.373 1.143,-0.869 1.143,-1.715 0,-1.408 -0.79,-2.059 -2.501,-2.059 -0.989,0.029 -1.318,0.102 -1.686,0.183 0.01,0.064 0.222,1.421 0.222,1.421 0.519,-0.167 0.969,-0.242 1.453,-0.242 0.641,0 0.931,0.173 0.931,0.557 0,0.28 -0.102,0.371 -0.758,0.68 -0.857,0.404 -1.235,0.94 -1.235,1.72 -0.005,1.137 0.622,2.084 2.436,2.084 0.37,0 1.007,-0.054 1.426,-0.12 l -0.23,-1.428 c -0.412,0.058 -0.847,0.093 -1.165,0.093 -0.524,0 -0.793,-0.171 -0.793,-0.504 0,-0.288 0.078,-0.357 0.757,-0.67 M -33.924,0 l 0.031,0.638 c -0.409,-0.504 -0.956,-0.745 -1.699,-0.745 -0.878,0 -1.48,0.687 -1.48,1.683 0,1.5 1.047,2.374 2.845,2.374 0.184,0 0.42,-0.017 0.661,-0.048 0.05,0.203 0.063,0.29 0.063,0.4 0,0.408 -0.282,0.559 -1.039,0.559 -0.793,0.01 -1.447,-0.188 -1.716,-0.276 0.017,0.102 0.225,1.385 0.225,1.385 0.807,0.237 1.34,0.326 1.94,0.326 1.392,0 2.129,-0.625 2.127,-1.806 0.003,-0.316 -0.049,-0.707 -0.131,-1.22 -0.14,-0.891 -0.442,-2.805 -0.484,-3.27 z m -5.448,0 0.929,5.821 L -40.516,0 h -1.105 L -41.758,5.787 -42.734,0 h -1.517 l 1.268,7.573 h 2.33 l 0.065,-4.688 1.573,4.688 h 2.518 L -37.751,0 Z m 28.532,18.86 c -3.823,0 -7.309,-1.438 -9.95,-3.801 -2.641,2.363 -6.127,3.801 -9.95,3.801 -8.246,0 -14.93,-6.685 -14.93,-14.931 0,-8.246 6.684,-14.93 14.93,-14.93 3.823,0 7.309,1.439 9.95,3.802 2.641,-2.363 6.127,-3.802 9.95,-3.802 8.246,0 14.93,6.684 14.93,14.93 0,8.246 -6.684,14.931 -14.93,14.931"
           style="fill:#fffff5;fill-opacity:1;fill-rule:nonzero;stroke:none"
           id="path4040"
           inkscape:connector-curvature="0" />
      </g>
    </g>
    <g
       transform="matrix(4.41,0,0,4.41,-411.09464,-50.068137)"
       id="g4064"
       style="fill:#fffff5;fill-opacity:1">
      <g
         id="g4058"
         style="fill:#fffff5;fill-opacity:1">
        <g
           transform="matrix(0.35277777,0,0,-0.35277777,139.9961,25.048361)"
           id="g4048"
           style="opacity:1;fill:#fffff5;fill-opacity:1">
          <path
             inkscape:connector-curvature="0"
             id="path4046"
             style="fill:#fffff5;fill-opacity:1;fill-rule:nonzero;stroke:none"
             d="m 0,0 -26.658,14.272 c -1.385,0.741 -2.887,0.779 -4.187,0.305 L -8.134,-8.134 Z" />
        </g>
        <g
           transform="matrix(0.35277777,0,0,-0.35277777,143.5031,26.925924)"
           id="g4052"
           style="opacity:1;fill:#fffff5;fill-opacity:1">
          <path
             inkscape:connector-curvature="0"
             id="path4050"
             style="fill:#fffff5;fill-opacity:1;fill-rule:nonzero;stroke:none"
             d="m 0,0 -7.679,4.111 -8.659,-8.659 8.659,-8.66 L 0,-9.097 C 3.632,-7.152 3.632,-1.945 0,0" />
        </g>
        <g
           transform="matrix(0.35277777,0,0,-0.35277777,128.38113,20.397754)"
           id="g4056"
           style="opacity:1;fill:#fffff5;fill-opacity:1">
          <path
             inkscape:connector-curvature="0"
             id="path4054"
             style="fill:#fffff5;fill-opacity:1;fill-rule:nonzero;stroke:none"
             d="m 0,0 c -0.815,-0.895 -1.328,-2.09 -1.328,-3.46 v -39.187 c 0,-1.37 0.513,-2.565 1.328,-3.46 l 23.054,23.054 z" />
        </g>
      </g>
      <g
         style="opacity:1;fill:#fffff5;fill-opacity:1"
         id="g4062"
         transform="matrix(0.35277777,0,0,-0.35277777,129.11466,37.155245)">
        <path
           d="m 0,0 c 1.3,-0.474 2.802,-0.436 4.187,0.306 l 26.658,14.271 -8.134,8.134 z"
           style="fill:#fffff5;fill-opacity:1;fill-rule:nonzero;stroke:none"
           id="path4060"
           inkscape:connector-curvature="0" />
      </g>
    </g>
    <g
       transform="matrix(4.41,0,0,4.41,-816.18741,-135.95199)"
       id="g4070"
       style="fill:#fffff5;fill-opacity:1">
      <g
         style="opacity:1;fill:#fffff5;fill-opacity:1"
         id="g4068"
         transform="matrix(0.35277777,0,0,-0.35277777,140.96953,48.840038)">
        <path
           d="m 0,0 -4.469,-2.393 -5.04,5.04 5.04,5.04 L 0,5.294 C 2.114,4.163 2.114,1.132 0,0 m -21.3,-11.404 c -0.807,-0.431 -1.681,-0.453 -2.437,-0.177 l 13.217,13.217 4.734,-4.734 z m -4.421,2.648 v 22.807 c 0,0.797 0.299,1.492 0.773,2.013 L -11.531,2.647 -24.948,-10.77 c -0.474,0.521 -0.773,1.217 -0.773,2.014 M -21.3,16.698 -5.786,8.392 -10.52,3.658 -23.737,16.876 c 0.756,0.276 1.63,0.254 2.437,-0.178 m 7.115,10.292 c -13.6,0 -24.625,-11.023 -24.625,-24.623 0,-13.599 11.025,-24.625 24.625,-24.625 13.598,0 24.624,11.026 24.624,24.625 0,13.6 -11.026,24.623 -24.624,24.623"
           style="fill:#fffff5;fill-opacity:1;fill-rule:nonzero;stroke:none"
           id="path4066"
           inkscape:connector-curvature="0" />
      </g>
    </g>
    <g
       transform="matrix(4.41,0,0,4.41,193.01446,-44.787109)"
       id="g4076"
       style="fill:#fffff5;fill-opacity:1">
      <g
         style="opacity:1;fill:#fffff5;fill-opacity:1"
         id="g4074"
         transform="matrix(0.35277777,0,0,-0.35277777,94.483477,30.039038)">
        <path
           d="m 0,0 c -1.933,0 -3.498,1.565 -3.498,3.497 0,1.929 1.565,3.495 3.498,3.495 1.931,0 3.496,-1.566 3.496,-3.495 C 3.496,1.565 1.931,0 0,0 m 0.695,-5.961 c -0.104,-0.109 -2.613,-2.661 -8.283,-2.661 -5.699,0 -7.979,2.588 -8.073,2.698 -0.321,0.375 -0.278,0.94 0.098,1.26 0.373,0.318 0.932,0.278 1.255,-0.092 0.051,-0.056 1.954,-2.079 6.72,-2.079 4.849,0 6.975,2.095 6.997,2.115 0.343,0.35 0.908,0.359 1.261,0.015 0.351,-0.342 0.364,-0.901 0.025,-1.256 m -18.789,9.458 c 0,1.929 1.564,3.495 3.497,3.495 1.931,0 3.496,-1.566 3.496,-3.495 0,-1.932 -1.565,-3.497 -3.496,-3.497 -1.933,0 -3.497,1.565 -3.497,3.497 m 35.287,3.872 c 0,3.138 -2.552,5.69 -5.69,5.69 -1.395,0 -2.711,-0.505 -3.75,-1.419 -3.763,2.408 -8.784,3.925 -14.322,4.088 l 3.389,11.591 8.32,-1.546 c 0,-0.068 -0.014,-0.132 -0.01,-0.201 0.101,-1.98 1.794,-3.508 3.774,-3.407 1.98,0.101 3.509,1.794 3.408,3.774 -0.101,1.98 -1.794,3.508 -3.774,3.407 -1.279,-0.065 -2.361,-0.798 -2.946,-1.839 -10e-4,0 -0.002,10e-4 -0.003,10e-4 L -4.437,29.37 -8.43,15.732 c -5.552,-0.148 -10.588,-1.657 -14.367,-4.06 -1.034,0.894 -2.336,1.387 -3.716,1.387 -3.137,0 -5.69,-2.552 -5.69,-5.69 0,-1.94 0.999,-3.73 2.617,-4.774 -0.098,-0.568 -0.154,-1.144 -0.154,-1.729 0,-8.213 9.955,-14.895 22.193,-14.895 12.238,0 22.193,6.682 22.193,14.895 0,0.568 -0.052,1.128 -0.145,1.68 1.662,1.036 2.692,2.852 2.692,4.823"
           style="fill:#fffff5;fill-opacity:1;fill-rule:nonzero;stroke:none"
           id="path4072"
           inkscape:connector-curvature="0" />
      </g>
    </g>
    <g
       transform="matrix(4.41,0,0,4.41,-723.35346,-138.76871)"
       id="g4094"
       style="fill:#fffff5;fill-opacity:1">
      <g
         style="opacity:1;fill:#fffff5;fill-opacity:1"
         id="g4080"
         transform="matrix(0.35277777,0,0,-0.35277777,96.947697,49.749332)">
        <path
           d="m 0,0 c 0.061,-0.364 0.096,-0.734 0.096,-1.109 0,-5.42 -6.571,-9.831 -14.648,-9.831 -8.077,0 -14.648,4.411 -14.648,9.831 0,0.386 0.037,0.767 0.102,1.141 -1.068,0.69 -1.727,1.871 -1.727,3.151 0,2.071 1.685,3.756 3.755,3.756 0.911,0 1.77,-0.325 2.453,-0.916 2.494,1.586 5.818,2.582 9.482,2.68 l 2.636,9.001 6.617,-1.229 c 0,0 10e-4,-0.001 0.002,-0.001 0.386,0.687 1.1,1.172 1.944,1.214 1.307,0.067 2.424,-0.942 2.491,-2.249 0.066,-1.306 -0.942,-2.424 -2.249,-2.49 -1.307,-0.067 -2.424,0.942 -2.491,2.249 -0.002,0.045 0.006,0.087 0.006,0.132 l -5.491,1.02 -2.236,-7.649 c 3.655,-0.108 6.968,-1.11 9.452,-2.699 0.686,0.603 1.554,0.937 2.475,0.937 2.071,0 3.756,-1.685 3.756,-3.756 C 1.777,1.882 1.097,0.684 0,0 m -14.524,27.784 c -13.615,0 -24.651,-11.037 -24.651,-24.651 0,-13.615 11.036,-24.651 24.651,-24.651 13.614,0 24.651,11.036 24.651,24.651 0,13.614 -11.037,24.651 -24.651,24.651"
           style="fill:#fffff5;fill-opacity:1;fill-rule:nonzero;stroke:none"
           id="path4078"
           inkscape:connector-curvature="0" />
      </g>
      <g
         style="opacity:1;fill:#fffff5;fill-opacity:1"
         id="g4084"
         transform="matrix(0.35277777,0,0,-0.35277777,93.433607,51.441104)">
        <path
           d="m 0,0 c -0.014,-0.014 -1.417,-1.396 -4.618,-1.396 -3.146,0 -4.402,1.335 -4.436,1.372 -0.212,0.244 -0.581,0.271 -0.828,0.061 -0.247,-0.211 -0.276,-0.584 -0.064,-0.832 0.062,-0.073 1.566,-1.781 5.328,-1.781 3.742,0 5.398,1.685 5.467,1.757 C 1.073,-0.585 1.064,-0.216 0.833,0.01 0.6,0.237 0.227,0.231 0,0"
           style="fill:#fffff5;fill-opacity:1;fill-rule:nonzero;stroke:none"
           id="path4082"
           inkscape:connector-curvature="0" />
      </g>
      <g
         style="opacity:1;fill:#fffff5;fill-opacity:1"
         id="g4088"
         transform="matrix(0.35277777,0,0,-0.35277777,93.571277,48.714097)">
        <path
           d="m 0,0 c -1.276,0 -2.308,-1.033 -2.308,-2.307 0,-1.275 1.032,-2.308 2.308,-2.308 1.274,0 2.307,1.033 2.307,2.308 C 2.307,-1.033 1.274,0 0,0"
           style="fill:#fffff5;fill-opacity:1;fill-rule:nonzero;stroke:none"
           id="path4086"
           inkscape:connector-curvature="0" />
      </g>
      <g
         style="opacity:1;fill:#fffff5;fill-opacity:1"
         id="g4092"
         transform="matrix(0.35277777,0,0,-0.35277777,90.986477,49.528008)">
        <path
           d="m 0,0 c 0,1.274 -1.033,2.307 -2.307,2.307 -1.276,0 -2.309,-1.033 -2.309,-2.307 0,-1.275 1.033,-2.308 2.309,-2.308 C -1.033,-2.308 0,-1.275 0,0"
           style="fill:#fffff5;fill-opacity:1;fill-rule:nonzero;stroke:none"
           id="path4090"
           inkscape:connector-curvature="0" />
      </g>
    </g>
  </g>
</svg>
